<?xml version="1.0" standalone="no"?>
<!DOCTYPE svg PUBLIC "-//W3C//DTD SVG 1.1//EN" "http://www.w3.org/Graphics/SVG/1.1/DTD/svg11.dtd" >
<svg xmlns="http://www.w3.org/2000/svg">
<metadata>
This is a custom SVG webfont generated by Font Squirrel.
Copyright   :  2011 Sergiy S Tkachenko  4th february 2011 ArchyStudiocomhttpcreativecommonsorglicensesbynd30httpcreativecommonsorglicensesbynd30deedru
Designer    : Sergiy S Tkachenko
Foundry     : Sergiy S Tkachenko
Foundry URL : httpwwwarchystudiocom
</metadata>
<defs>
<font id="DesignosaurItalic" horiz-adv-x="1189" >
<font-face units-per-em="2048" ascent="1536" descent="-512" />
<missing-glyph horiz-adv-x="614" />
<glyph unicode=" "  horiz-adv-x="614" />
<glyph unicode="&#x09;" horiz-adv-x="614" />
<glyph unicode="&#xa0;" horiz-adv-x="614" />
<glyph unicode="!" horiz-adv-x="462" d="M106 41l25 164q6 41 45 41h176q43 0 37 -41l-24 -164q-6 -41 -46 -41h-176q-43 0 -37 41zM211 492l92 942q2 41 47 41h176q43 0 35 -41l-174 -942q-8 -41 -47 -41h-94q-37 0 -35 41z" />
<glyph unicode="&#x22;" horiz-adv-x="712" d="M258 1106l27 328q2 41 47 41h135q43 0 35 -41l-68 -328q-8 -41 -45 -41h-94q-39 0 -37 41zM586 1106l26 328q2 41 47 41h136q43 0 34 -41l-67 -328q-8 -41 -45 -41h-94q-39 0 -37 41z" />
<glyph unicode="#" horiz-adv-x="1165" d="M121 88l155 381h-88q-39 0 -36 41l16 102q2 41 45 41h137l76 185h-107q-41 0 -34 41l14 102q6 41 47 41h156l168 412q14 41 53 28l94 -26q39 -8 23 -50l-150 -364h221l168 412q14 41 54 28l94 -26q39 -8 22 -50l-149 -364h86q41 0 35 -41l-15 -102q-6 -41 -47 -41h-135 l-76 -185h105q39 0 37 -41l-17 -102q-2 -41 -45 -41h-154l-176 -428q-14 -41 -53 -29l-94 27q-39 8 -21 49l156 381h-221l-176 -428q-14 -41 -53 -29l-95 27q-38 8 -20 49zM539 653h221l76 185h-222z" />
<glyph unicode="$" horiz-adv-x="1136" d="M115 158q-14 14 6 53l45 86q10 18 53 4q176 -49 344 -49q127 0 214 42t95 109q16 104 -165 175l-189 73q-317 123 -282 377q20 152 141 252t295 127l20 149q6 41 47 41h103q41 0 35 -41l-21 -143q109 -10 211 -42t129 -54q14 -12 -6 -53l-45 -86q-8 -18 -53 -4 q-176 49 -324 49q-143 0 -212 -51.5t-79 -116.5q-14 -96 154 -158l186 -68q166 -63 241 -171.5t56 -233.5q-20 -143 -140 -236.5t-306 -119.5l-21 -150q-6 -41 -47 -41h-102q-41 0 -35 41l20 141q-115 8 -226 39t-142 60z" />
<glyph unicode="%" horiz-adv-x="1449" d="M211 137l1102 1307q25 33 57 10l76 -59q31 -25 2 -58l-1100 -1306q-29 -33 -59 -11l-76 60q-31 24 -2 57zM258 1110q25 184 116 282.5t216 98.5q123 0 187.5 -98.5t39.5 -282.5q-27 -184 -119 -282.5t-215 -98.5t-187.5 98.5t-37.5 282.5zM436 1110q-27 -199 72 -199 q104 0 131 199q29 197 -76 197q-98 0 -127 -197zM838 358q27 184 118 282.5t213 98.5q125 0 189.5 -98t38.5 -283q-25 -184 -117 -282.5t-217 -98.5q-123 0 -186.5 98.5t-38.5 282.5zM1016 358q-27 -199 71 -198q104 0 132 198q29 197 -74 197q-100 0 -129 -197z" />
<glyph unicode="&#x26;" horiz-adv-x="1460" d="M129 344q25 174 149.5 294t331.5 226l-43 60q-76 129 -55 278q18 133 131 212t277 79q178 0 276 -77t82 -202q-31 -217 -344 -403l143 -281l223 183q35 31 56 -6l78 -125q20 -33 -15 -60l-235 -182l172 -307q20 -33 -21 -33h-229q-41 0 -59 35l-78 139 q-135 -102 -240.5 -146t-216.5 -44q-199 0 -302.5 102t-80.5 258zM387 352q-10 -68 33 -116t121 -48q111 0 327 172l-159 322q-154 -84 -232 -160t-90 -170zM768 1206q-10 -82 66 -219q174 117 188 225q6 43 -29 71t-100 28q-45 0 -81 -27t-44 -78z" />
<glyph unicode="'" horiz-adv-x="385" d="M258 1106l27 328q2 41 47 41h135q43 0 35 -41l-68 -328q-8 -41 -45 -41h-94q-39 0 -37 41z" />
<glyph unicode="(" horiz-adv-x="761" d="M184.5 739.5q63.5 450.5 242.5 687t411 236.5h55q41 0 35 -41l-17 -115q-6 -41 -47 -41q-158 0 -255 -159.5t-154 -569.5q-45 -281 -27 -441.5t72.5 -222t158.5 -61.5q43 0 37 -41l-16 -114q-6 -41 -47 -41h-55q-231 0 -344 236.5t-49.5 687z" />
<glyph unicode=")" horiz-adv-x="761" d="M41 -143l16 114q6 41 45 41q158 0 255.5 159t154.5 566q45 283 26.5 444.5t-72.5 223t-159 61.5q-41 0 -35 41l17 115q6 41 47 41h55q231 0 343 -236.5t48.5 -687t-242 -687t-409.5 -236.5h-55q-41 0 -35 41z" />
<glyph unicode="*" horiz-adv-x="876" d="M287 1288l20 49q18 39 55 25l197 -78l27 232q2 41 43 40h53q37 0 35 -40l-39 -232l217 78q41 14 47 -25l8 -49q6 -39 -37 -51l-219 -63l121 -181q20 -31 -18 -55l-47 -27q-37 -20 -56 13l-100 184l-154 -184q-29 -31 -59 -13l-39 27q-33 25 -2 55l170 181l-203 63 q-38 12 -20 51z" />
<glyph unicode="+" horiz-adv-x="921" d="M178 694l15 103q6 41 47 41h245l35 245q6 41 47 41h103q41 0 35 -41l-35 -245h245q41 0 35 -41l-14 -103q-6 -41 -47 -41h-246l-35 -245q-2 -41 -45 -41h-102q-39 0 -37 41l35 245h-246q-41 0 -35 41z" />
<glyph unicode="," horiz-adv-x="491" d="M106 41l29 205q6 41 47 41h205q41 0 35 -41l-33 -236q-12 -92 -58 -181t-85 -126q-25 -25 -53 -2l-60 43q-18 14 4 53q2 4 23.5 45t36 79t20.5 79h-74q-43 0 -37 41z" />
<glyph unicode="-" horiz-adv-x="757" d="M199 694l14 103q6 41 47 41h471q41 0 35 -41l-14 -103q-6 -41 -47 -41h-472q-40 0 -34 41z" />
<glyph unicode="." horiz-adv-x="491" d="M106 41l29 205q6 41 47 41h205q41 0 35 -41l-29 -205q-6 -41 -45 -41h-205q-43 0 -37 41z" />
<glyph unicode="/" horiz-adv-x="897" d="M33 53l878 1446q25 39 60 21l86 -43q35 -18 12 -56l-879 -1446q-23 -37 -59 -20l-86 43q-35 18 -12 55z" />
<glyph unicode="0" horiz-adv-x="1282" d="M184 737q51 371 234.5 566.5t431.5 195.5t376 -196.5t76.5 -565t-235.5 -565.5t-430 -197t-375 196.5t-78 565.5zM455 737q-41 -295 19.5 -431t189.5 -136q131 0 229 136t139 431q43 295 -17.5 431.5t-191.5 136.5q-129 0 -227 -136.5t-141 -431.5z" />
<glyph unicode="1" horiz-adv-x="671" d="M172 1081l16 115q6 43 45 59l508 232q20 10 27.5 4t5.5 -27l-201 -1423q-6 -41 -45 -41h-174q-43 0 -37 41l160 1133l-272 -117q-20 -8 -28.5 -3.5t-4.5 27.5z" />
<glyph unicode="2" horiz-adv-x="1040" d="M100 41l9 57q8 49 32 78l527 664q147 164 163 282q10 78 -30.5 130.5t-134.5 52.5q-102 0 -312 -50q-51 -12 -53 5l-20 86q-10 39 8 53q43 31 178 65.5t254 34.5q182 0 288.5 -95t88.5 -280q-18 -176 -154 -319l-582 -621h580q41 0 35 -41l-14 -102q-6 -41 -45 -41h-781 q-43 0 -37 41z" />
<glyph unicode="3" horiz-adv-x="1089" d="M104 76q-16 16 5 53l45 86q8 18 55 4q176 -49 336 -49q88 0 163.5 74.5t94.5 206.5q20 135 -38 217t-171 80h-51q-41 0 -35 40l6 43q6 43 33 76l268 383h-477q-41 0 -35 41l14 103q6 41 48 41h739q41 0 35 -41l-9 -58q-8 -49 -30 -78l-338 -389q166 -27 251 -145.5 t58 -298.5q-29 -209 -190.5 -349.5t-360.5 -140.5q-121 0 -251 34t-165 67z" />
<glyph unicode="4" horiz-adv-x="1183" d="M135 393l4 21q6 45 33 73l762 955q31 33 70 33h135q41 0 35 -41l-127 -899h129q41 0 34 -41l-14 -101q-2 -41 -45 -41h-129l-45 -311q-6 -41 -45 -41h-176q-43 0 -37 41l45 311h-592q-39 0 -37 41zM453 535h335l76 536h-4z" />
<glyph unicode="5" horiz-adv-x="1077" d="M104 76q-16 16 5 53l45 86q8 18 55 4q176 -49 336 -49q84 0 154.5 73.5t93.5 219.5q18 119 -26 202t-132 83q-109 0 -256 -33q-39 -8 -68 24l-10 11q-27 25 -16 69l118 615q8 41 50 41h604q41 0 35 -41l-15 -103q-6 -41 -47 -41h-473l-70 -368q102 20 177 20 q176 0 302 -127t95 -348q-31 -211 -184.5 -351.5t-356.5 -140.5q-121 0 -251 34t-165 67z" />
<glyph unicode="6" horiz-adv-x="1126" d="M184 729q53 379 221 574.5t402 195.5q78 0 164 -22.5t140 -50t50 -48.5q0 -10 -12 -32l-45 -86q-8 -10 -23 -11l-120 33q-102 23 -170 23q-305 0 -385 -560q55 137 138 190.5t195 53.5q231 0 318.5 -137t54.5 -360q-31 -231 -167 -374t-382 -143q-229 0 -330.5 191.5 t-48.5 562.5zM389 430q-16 -125 41 -192.5t141 -67.5q248 0 297 328q18 139 -20.5 218t-169.5 79q-244 0 -289 -365z" />
<glyph unicode="7" horiz-adv-x="987" d="M223 39l606 1251h-546q-41 0 -35 41l14 103q6 41 47 41h783q41 0 34 -41l-10 -74q-4 -27 -33 -78l-587 -1243q-18 -39 -58 -39h-190q-43 0 -25 39z" />
<glyph unicode="8" horiz-adv-x="1175" d="M141 424q39 279 351 387q-223 96 -193 307q27 176 150.5 278.5t347 102.5t320.5 -101.5t71 -277.5q-27 -209 -279 -309q283 -113 242 -389q-29 -215 -178.5 -331t-388.5 -116q-246 0 -360 116t-83 333zM397 430q-16 -119 46.5 -190.5t166.5 -71.5q106 0 188.5 70.5 t98.5 189.5q18 125 -44 201t-166.5 76t-188 -76t-101.5 -199zM555 1120q-10 -86 36 -148.5t124 -62.5q76 0 140.5 60.5t76.5 150.5q12 82 -36 134.5t-128 52.5t-141.5 -54.5t-71.5 -132.5z" />
<glyph unicode="9" horiz-adv-x="1126" d="M170 96.5q4 20.5 12 32.5l45 86q8 10 23 10l121 -32q102 -23 170 -23q305 0 387 559q-55 -137 -139 -190.5t-197 -53.5q-231 0 -318.5 137.5t-54.5 360.5q31 231 167 373.5t382 142.5q229 0 330.5 -191.5t50.5 -562.5q-53 -379 -222 -574.5t-403 -195.5q-78 0 -164 22.5 t-140 50.5t-50 48.5zM465 977q-20 -139 18.5 -218t169.5 -79q223 0 269 364q16 125 -35 193t-127 68q-250 0 -295 -328z" />
<glyph unicode=":" horiz-adv-x="491" d="M106 41l29 205q6 41 47 41h205q41 0 35 -41l-29 -205q-6 -41 -45 -41h-205q-43 0 -37 41zM201 705l28 204q6 41 47 41h205q41 0 35 -41l-29 -204q-6 -41 -47 -41h-204q-41 0 -35 41z" />
<glyph unicode=";" horiz-adv-x="491" d="M106 41l29 205q6 41 47 41h205q41 0 35 -41l-33 -236q-12 -92 -58 -181t-85 -126q-25 -25 -53 -2l-60 43q-18 14 4 53q2 4 23.5 45t36 79t20.5 79h-74q-43 0 -37 41zM201 705l28 204q6 41 47 41h205q41 0 35 -41l-29 -204q-6 -41 -47 -41h-204q-41 0 -35 41z" />
<glyph unicode="&#x3c;" horiz-adv-x="1241" d="M203 715l6 57q6 39 45 57l1024 433q20 8 28.5 3t4.5 -28l-15 -111q-6 -41 -45 -57l-770 -326l678 -325q35 -16 29 -58l-14 -110q-6 -43 -41 -25l-902 432q-34 17 -28 58z" />
<glyph unicode="=" horiz-adv-x="995" d="M152 500l12 90q6 41 47 41h750q41 0 34 -41l-12 -90q-6 -41 -47 -41h-750q-40 0 -34 41zM207 897l12 90q6 41 47 41h750q41 0 35 -41l-13 -90q-6 -41 -47 -41h-749q-41 0 -35 41z" />
<glyph unicode="&#x3e;" horiz-adv-x="1241" d="M137 250l15 110q6 41 45 58l772 325l-680 326q-35 16 -29 57l14 111q6 43 41 25l902 -433q35 -16 28 -57l-6 -57q-6 -39 -45 -58l-1024 -432q-20 -8 -28.5 -3t-4.5 28z" />
<glyph unicode="?" horiz-adv-x="1040" d="M281 1346q-10 39 8 53q43 31 178 65.5t254 34.5q178 0 285.5 -91t91.5 -284q-18 -184 -154 -319q-2 -2 -43 -36t-77 -66.5t-71.5 -85t-41.5 -97.5l-4 -28q-6 -41 -48 -41h-176q-41 0 -34 41l4 28q12 84 58 146.5t157 173.5q20 20 47.5 53t67.5 102.5t48 126.5 q10 78 -30.5 130.5t-138.5 52.5q-86 0 -308 -50q-51 -10 -53 5zM385 41l25 164q6 41 45 41h176q43 0 37 -41l-25 -164q-6 -41 -45 -41h-176q-43 0 -37 41z" />
<glyph unicode="@" horiz-adv-x="1671" d="M158 547q51 367 291.5 557t623.5 190q344 0 496.5 -170t99.5 -555q-33 -229 -126 -339.5t-300 -110.5q-39 0 -69.5 4t-50 11t-32 14.5t-18.5 17.5t-8 16t-4 15v10l-19 63h-4q-53 -86 -103 -119.5t-130 -33.5q-145 0 -228 99t-53 319q31 217 141.5 315t258.5 98 q76 0 116.5 -32.5t71.5 -120.5h4l33 86q14 41 47 41h102q41 0 35 -41l-80 -574q-2 -12 5.5 -18t27.5 -6q70 0 102.5 67.5t51.5 198.5q47 332 -43 462t-336 130q-289 0 -463 -148.5t-213 -435.5q-43 -303 99.5 -447.5t428.5 -144.5q166 0 443 49q51 8 53 -4l23 -76 q12 -47 -11 -63q-49 -33 -220 -66.5t-333 -33.5q-238 0 -407.5 80.5t-254.5 259t-48 436.5zM770 535q-18 -139 9.5 -192.5t101.5 -53.5q84 0 132 58.5t66 189.5q18 129 -13.5 184t-115.5 55q-74 0 -117 -51t-63 -190z" />
<glyph unicode="A" horiz-adv-x="1376" d="M31 37l755 1401q20 37 64 37h90q43 0 51 -37l363 -1401q3 -9 3 -15q0 -22 -32 -22h-195q-43 0 -51 39l-82 323h-581l-172 -323q-20 -39 -60 -39h-133q-29 0 -29 15q0 9 9 22zM508 535h446l-106 530l-21 154l-59 -154z" />
<glyph unicode="B" horiz-adv-x="1155" d="M106 41l197 1393q6 41 47 41h303q242 0 366 -102q102 -83 102 -224q0 -30 -5 -64q-31 -215 -237 -307v-4q143 -23 207 -118q49 -72 49 -171q0 -31 -5 -65q-25 -178 -176 -299t-350 -121h-461q-43 0 -37 41zM383 172h176q281 0 313 246q3 22 3 41q0 78 -44 135 q-55 72 -202 72h-176zM477 838h123q94 0 168 66.5t90 176.5q3 21 3 41q0 76 -45 122q-56 58 -189 59h-84z" />
<glyph unicode="C" horiz-adv-x="1308" d="M184 737q51 371 279.5 566.5t550.5 195.5q121 0 237.5 -33.5t157.5 -66.5q7 -6 7 -18q0 -14 -11 -35l-45 -86q-14 -16 -53 -5q-184 49 -320 50q-203 0 -347 -137.5t-185 -430.5q-11 -81 -12 -150q0 -180 77 -280q106 -137 307 -137q131 0 334 49q41 14 51 -4l23 -76 q3 -15 3 -27q0 -24 -13 -36q-51 -33 -177 -67t-247 -34q-319 0 -494 197q-135 152 -134 407q-1 74 11 158z" />
<glyph unicode="D" horiz-adv-x="1320" d="M106 41l197 1393q6 41 47 41h471q256 0 411 -209q121 -163 121 -391q0 -63 -10 -132q-45 -315 -270 -527t-508 -216h-422q-43 0 -37 41zM385 184h203q176 0 314 163t171 407q8 57 8 109q0 161 -76 276q-101 152 -278 151h-186z" />
<glyph unicode="E" horiz-adv-x="989" d="M106 41l197 1393q6 41 47 41h723q41 0 35 -41l-14 -103q-6 -41 -47 -41h-506l-64 -452h404q41 0 34 -41l-14 -103q-6 -41 -47 -41h-403l-66 -469h506q41 0 35 -41l-15 -102q-6 -41 -45 -41h-723q-43 0 -37 41z" />
<glyph unicode="F" horiz-adv-x="989" d="M106 41l197 1393q6 41 47 41h723q41 0 35 -41l-14 -103q-6 -41 -47 -41h-506l-64 -452h404q41 0 34 -41l-14 -103q-6 -41 -47 -41h-403l-86 -612q-6 -41 -46 -41h-176q-43 0 -37 41z" />
<glyph unicode="G" horiz-adv-x="1329" d="M184 737q51 371 279.5 566.5t550.5 195.5q121 0 237.5 -33.5t157.5 -66.5q7 -6 7 -18q0 -14 -11 -35l-43 -76q-14 -16 -55 -4q-184 49 -318 49q-203 0 -348 -139.5t-186 -438.5q-11 -84 -12 -154q0 -183 76 -284q105 -139 306 -139q88 0 164 12l68 481h-180q-41 0 -35 41 l14 103q6 41 47 41h397q41 0 35 -41l-96 -693q0 -16 -14 -28q-51 -33 -177 -67t-247 -34q-319 0 -494 197q-135 152 -134 407q-1 74 11 158z" />
<glyph unicode="H" horiz-adv-x="1247" d="M106 41l197 1393q6 41 47 41h176q41 0 35 -41l-82 -586h527l81 586q6 41 48 41h176q41 0 35 -41l-197 -1393q-6 -41 -45 -41h-176q-43 0 -37 41l88 623h-526l-88 -623q-6 -41 -46 -41h-176q-43 0 -37 41z" />
<glyph unicode="I" horiz-adv-x="462" d="M106 41l197 1393q6 41 47 41h176q41 0 35 -41l-196 -1393q-6 -41 -46 -41h-176q-43 0 -37 41z" />
<glyph unicode="J" horiz-adv-x="729" d="M27 45l12 98q6 41 47 41h27q156 0 240.5 87t115.5 302l121 861q6 41 47 41h176q41 0 35 -41l-127 -904q-39 -256 -194.5 -393t-391.5 -137l-78 2q-32 2 -31 32q0 5 1 11z" />
<glyph unicode="K" horiz-adv-x="1304" d="M106 41l197 1393q6 41 47 41h176q41 0 35 -41l-88 -631l596 639q31 33 72 33h211q23 0 23 -11q0 -8 -13 -22l-668 -686l488 -723q18 -33 -21 -33h-241q-43 0 -62 33l-405 637l-88 -629q-6 -41 -46 -41h-176q-43 0 -37 41z" />
<glyph unicode="L" horiz-adv-x="948" d="M106 41l197 1393q6 41 47 41h176q41 0 35 -41l-176 -1250h506q41 0 35 -41l-15 -102q-6 -41 -45 -41h-723q-43 0 -37 41z" />
<glyph unicode="M" horiz-adv-x="1710" d="M106 41l197 1393q6 41 47 41h187q41 0 55 -35l305 -1118l643 1116q25 37 68 37h166q41 0 34 -41l-196 -1393q-6 -41 -45 -41h-176q-43 0 -37 41l82 573l77 412h-4l-553 -989q-23 -37 -63 -37h-133q-43 0 -58 35l-256 991h-4l-36 -412l-82 -573q-6 -41 -45 -41h-136 q-43 0 -37 41z" />
<glyph unicode="N" horiz-adv-x="1302" d="M106 41l197 1393q6 41 47 41h144q45 0 61 -33l485 -1000h4l39 418l80 574q6 41 47 41h156q41 0 35 -41l-197 -1393q-6 -41 -45 -41h-143q-47 0 -64 33l-485 999h-4l-37 -418l-82 -573q-6 -41 -45 -41h-156q-43 0 -37 41z" />
<glyph unicode="O" horiz-adv-x="1609" d="M184 737q51 371 279.5 566.5t550 195.5t494.5 -195q134 -151 134 -407q0 -76 -12 -160q-51 -369 -280.5 -565.5t-549 -196.5t-493.5 197q-135 152 -134 407q-1 74 11 158zM455 737q-11 -81 -12 -150q0 -180 77 -280q106 -137 307 -137t346.5 137t186.5 430q11 82 11 152 q0 180 -76 278q-105 137 -308 137.5t-347 -137t-185 -430.5z" />
<glyph unicode="P" horiz-adv-x="1140" d="M106 41l197 1393q6 41 47 41h389q229 0 357 -149q102 -120 102 -284q0 -40 -6 -81q-29 -213 -200 -362.5t-398 -149.5h-172l-57 -408q-6 -41 -46 -41h-176q-43 0 -37 41zM449 631h131q309 0 354 330q7 45 7 83q0 245 -269 248h-131z" />
<glyph unicode="Q" horiz-adv-x="1609" d="M184 737q51 371 279.5 566.5t550 195.5t494.5 -195q134 -151 134 -407q0 -76 -12 -160q-59 -414 -342 -614l166 -307q10 -16 6 -24.5t-26 -8.5h-226q-43 0 -57 35l-96 192q-123 -35 -254 -35q-319 0 -494 197q-135 152 -134 407q-1 74 11 158zM455 737q-11 -81 -12 -150 q0 -180 77 -280q106 -137 307 -137q78 0 138 16l-160 306q-10 16 -6 24t26 8h226q43 0 57 -35l80 -167q133 143 172 415q11 82 11 152q0 180 -76 278q-105 137 -308 137.5t-347 -137t-185 -430.5z" />
<glyph unicode="R" horiz-adv-x="1161" d="M106 41l197 1393q6 41 47 41h389q229 0 357 -149q102 -120 102 -284q0 -40 -6 -81q-20 -150 -115.5 -274t-238.5 -187l249 -467q10 -16 6.5 -24.5t-26.5 -8.5h-225q-43 0 -58 35l-202 414h-160l-57 -408q-6 -41 -46 -41h-176q-43 0 -37 41zM449 631h131q309 0 354 330 q7 45 7 83q0 245 -269 248h-131z" />
<glyph unicode="S" horiz-adv-x="1136" d="M104 76q-7 7 -7 18q0 14 12 35l45 86q8 18 55 4q176 -49 336 -49q133 0 222 53t99 137q2 13 2 25q0 55 -38 101q-46 56 -123 89l-189 78q-281 118 -281 353q0 30 5 63q27 195 186.5 312.5t370.5 117.5q123 0 250 -36t157 -64q7 -5 8 -17q0 -14 -12 -36l-45 -86 q-10 -18 -53 -5q-176 49 -320 50q-147 0 -217.5 -63.5t-83.5 -147.5q-2 -14 -2 -27q0 -106 150 -166l186 -74q162 -63 236 -183q59 -96 59 -205q0 -27 -4 -56q-27 -186 -188.5 -297t-399.5 -111q-121 0 -251 34t-165 67z" />
<glyph unicode="T" horiz-adv-x="983" d="M207 1331l14 103q6 41 47 41h860q41 0 35 -41l-14 -103q-6 -41 -47 -41h-301l-176 -1249q-6 -41 -45 -41h-177q-43 0 -36 41l176 1249h-301q-41 0 -35 41z" />
<glyph unicode="U" horiz-adv-x="1302" d="M174 524l129 910q6 41 47 41h176q41 0 35 -41l-121 -852q-7 -53 -7 -101q0 -117 43 -201q60 -120 196 -120q166 0 276.5 118.5t134.5 303.5l121 852q6 41 47 41h115q41 0 35 -41l-129 -910q-33 -240 -210 -394.5t-419 -154.5q-236 0 -369 157q-107 126 -106 302 q0 43 6 90z" />
<glyph unicode="V" horiz-adv-x="1273" d="M227 1438q-3 8 -2 14q0 22 33 23h195q41 0 49 -39l123 -660l49 -366l18 -154l62 154l120 284l361 742q20 39 61 39h134q27 0 27 -15q0 -9 -9 -22l-715 -1401q-20 -37 -61 -37h-90q-45 0 -54 37z" />
<glyph unicode="W" horiz-adv-x="1785" d="M227 1438q-3 8 -2 14q0 22 33 23h195q47 0 49 -39l82 -822l6 -358l108 358l312 822q14 39 57 39h127q43 0 45 -39l68 -822v-358l114 358l326 822q20 39 61 39h134q27 0 27 -15q0 -9 -9 -22l-612 -1401q-18 -37 -62 -37h-131q-51 0 -53 37l-70 995l-360 -995 q-14 -37 -62 -37h-131q-47 0 -53 37z" />
<glyph unicode="X" horiz-adv-x="1202" d="M22 12q0 10 19 33l518 709l-301 676q-12 25 -6 35t35 10h192q55 0 70 -39l194 -469l347 469q29 39 86 39h143q23 0 30 -6q5 -4 5 -8q0 -2 -1 -5q-3 -8 -18 -26l-489 -656l330 -729q12 -23 5 -34t-36 -11h-193q-51 0 -71 39l-219 510l-377 -510q-29 -39 -82 -39h-146 q-35 0 -35 12z" />
<glyph unicode="Y" horiz-adv-x="1286" d="M229 1440q-4 9 -3 15q0 19 30 20h219q41 0 55 -35l236 -664l444 662q23 37 66 37h168q25 0 24 -15q0 -9 -8 -22l-624 -899l-70 -498q-6 -41 -45 -41h-176q-43 0 -37 41l70 498z" />
<glyph unicode="Z" horiz-adv-x="995" d="M25 41l10 74q6 39 33 78l774 1097h-588q-41 0 -35 41l14 103q6 41 48 41h843q41 0 35 -41l-10 -74q-6 -39 -33 -78l-772 -1098h614q41 0 35 -41l-14 -102q-6 -41 -45 -41h-873q-42 0 -36 41z" />
<glyph unicode="[" horiz-adv-x="559" d="M63 -266l283 2007q6 41 47 41h314q41 0 34 -41l-14 -103q-6 -41 -47 -41h-96l-242 -1720h96q41 0 35 -41l-14 -102q-6 -41 -47 -41h-314q-41 0 -35 41z" />
<glyph unicode="\" horiz-adv-x="897" d="M225 1421q-12 39 29 56l98 43q39 16 51 -21l474 -1446q12 -39 -29 -55l-98 -43q-39 -18 -52 20z" />
<glyph unicode="]" horiz-adv-x="559" d="M23 -266l14 102q6 41 47 41h96l242 1720h-96q-41 0 -35 41l14 103q6 41 47 41h314q41 0 34 -41l-282 -2007q-6 -41 -47 -41h-314q-40 0 -34 41z" />
<glyph unicode="^" horiz-adv-x="1032" d="M152 897l448 582q31 37 64 37h131q35 0 51 -37l284 -582q12 -37 -28 -37h-148q-20 0 -29.5 8.5t-19.5 30.5l-196 473l-332 -473q-27 -39 -58 -39h-147q-45 0 -20 37z" />
<glyph unicode="_" horiz-adv-x="1372" d="M-66 -471l15 102q6 41 47 41h1288q41 0 35 -41l-14 -102q-6 -41 -48 -41h-1288q-41 0 -35 41z" />
<glyph unicode="`" horiz-adv-x="612" d="M328 1487q-29 29 14 29h186q41 0 58 -35l94 -201q16 -35 -25 -35h-63q-39 0 -68 29z" />
<glyph unicode="a" d="M156 537q41 295 179 425t333 130q213 0 301 -154h4l33 86q12 41 47 41h143q41 0 35 -41l-105 -731q-3 -24 -3 -43q0 -29 7 -47q12 -31 35 -31h4q41 0 35 -41l-12 -90q-6 -41 -45 -41h-12q-121 0 -173.5 42t-56.5 126h-4q-147 -195 -389 -195q-195 0 -296 131 q-72 93 -72 273q0 73 12 160zM401 537q-13 -93 -12 -163q0 -99 26 -147q44 -82 163 -82q283 0 337 392q9 63 10 115q0 268 -237 268q-121 0 -187.5 -81t-99.5 -302z" />
<glyph unicode="b" d="M176 528l133 947q6 41 47 41h164q41 0 35 -41l-76 -535h4q119 150 334 150q199 0 302 -132q74 -94 74 -270q0 -70 -11 -153q-80 -561 -561 -562q-109 0 -194 29t-151.5 90.5t-93.5 172.5q-15 63 -15 139q0 58 9 124zM422 528q-9 -63 -9 -115q0 -268 236 -268 q121 0 188.5 81t98.5 302q12 91 12 159q0 99 -26 149q-45 82 -162 82q-283 -1 -338 -390z" />
<glyph unicode="c" horiz-adv-x="980" d="M156 535q80 557 573 557q92 0 176 -33t119 -68q9 -9 9 -20q0 -15 -15 -33l-53 -66q-14 -16 -54 -4q-6 2 -32.5 13.5t-46 18.5t-52 13.5t-63.5 6.5q-260 0 -316 -388q-9 -66 -9 -120q0 -265 214 -265q61 0 211 52q43 14 53 -4l33 -66q16 -29 -8 -53q-39 -39 -131 -70 t-211 -31q-408 0 -408 413q0 68 11 147z" />
<glyph unicode="d" d="M156 528q41 299 181 430.5t337 131.5q217 0 295 -150h4l76 535q6 41 47 41h164q41 0 34 -41l-168 -1182q-3 -24 -3 -43q0 -29 7 -47q12 -31 35 -31h4q41 0 35 -41l-12 -90q-6 -41 -45 -41h-12q-121 0 -173.5 42t-56.5 126h-4q-147 -195 -389 -195q-195 0 -296 130 q-72 93 -72 269q0 71 12 156zM401 528q-13 -91 -12 -158q0 -96 26 -144q44 -81 163 -81q141 0 225 92.5t112 290.5q9 63 9 116q0 273 -240 274q-115 0 -182.5 -82.5t-100.5 -307.5z" />
<glyph unicode="e" horiz-adv-x="1056" d="M154 522q37 256 168 413t366 157q195 0 301 -113q83 -87 83 -237q0 -43 -7 -91q-16 -119 -70.5 -162t-181.5 -43h-420q-1 -17 -1 -33q0 -265 218 -266q78 0 248 52q41 12 53 -4l33 -66q16 -29 -8 -53q-37 -37 -145.5 -69t-231.5 -32q-415 0 -415 411q0 63 10 136z M418 618h315q49 0 66.5 12.5t23.5 57.5q3 22 3 42q0 68 -31 121q-41 69 -119 69q-192 -1 -258 -302z" />
<glyph unicode="f" horiz-adv-x="604" d="M-51 -471l12 90q6 41 45 41h14q39 0 74 36t45 105l154 1102h-107q-41 0 -34 41l12 80q6 41 47 41h106l19 131q43 319 328 320h75q41 0 35 -41l-12 -91q-6 -41 -47 -41h-15q-39 0 -73.5 -35.5t-44.5 -105.5l-19 -137h129q41 0 35 -41l-12 -80q-6 -41 -47 -41h-129 l-154 -1096q-43 -319 -328 -319h-73q-41 0 -35 41z" />
<glyph unicode="g" d="M115 -369q-6 6 -6 16q0 14 12 38l45 86q8 18 53 4q176 -49 338 -49q111 0 189.5 86t99.5 227l12 86h-4q-119 -150 -336 -150q-199 0 -301 131q-73 94 -73 273q0 72 12 158q41 295 179 425t333 130q242 0 342 -154h4l33 86q14 41 47 41h102q41 0 35 -41l-135 -963 q-33 -240 -189.5 -385t-376.5 -145q-121 0 -249.5 33.5t-165.5 66.5zM401 537q-12 -91 -12 -160q0 -99 27 -148q45 -82 162 -82q283 0 337 390q9 63 10 115q0 268 -237 268q-121 0 -187.5 -81t-99.5 -302z" />
<glyph unicode="h" horiz-adv-x="1128" d="M106 41l203 1434q6 41 47 41h164q41 0 35 -41l-76 -535h4q102 150 295 150q180 0 272 -132q63 -90 62 -260q0 -77 -12 -170l-31 -215q-5 -30 -5 -54q0 -15 2 -27q5 -32 15.5 -46t24.5 -14h4q41 0 35 -41l-12 -90q-6 -41 -46 -41h-12q-259 0 -259 228q0 33 5 71l33 229 q16 108 16 183q0 82 -19 125q-36 82 -132 82q-244 0 -289 -328l-78 -549q-6 -41 -45 -41h-164q-43 0 -37 41z" />
<glyph unicode="i" horiz-adv-x="450" d="M143 299l103 725q6 41 47 41h164q41 0 35 -41l-101 -711q-5 -30 -5 -54q0 -15 2 -27q5 -32 15.5 -46t24.5 -14h4q41 0 35 -41l-12 -90q-6 -41 -45 -41h-13q-259 0 -259 228q0 33 5 71zM285 1311l24 164q6 41 47 41h164q41 0 35 -41l-25 -164q-6 -41 -45 -41h-163 q-43 0 -37 41z" />
<glyph unicode="j" horiz-adv-x="450" d="M-68 -410l15 91q6 41 45 40h12q23 0 46.5 41t33.5 121l162 1141q6 41 47 41h164q41 0 35 -41l-162 -1155q-45 -319 -328 -320h-33q-43 0 -37 41zM285 1311l24 164q6 41 47 41h164q41 0 35 -41l-25 -164q-6 -41 -45 -41h-163q-43 0 -37 41z" />
<glyph unicode="k" horiz-adv-x="997" d="M106 41l203 1434q6 41 47 41h162q41 0 35 -41l-123 -877l404 434q31 33 71 33h170q26 0 27 -10q0 -8 -17 -23l-475 -481l359 -518q23 -33 -21 -33h-200q-43 0 -62 33l-276 432l-60 -424q-6 -41 -45 -41h-162q-43 0 -37 41z" />
<glyph unicode="l" horiz-adv-x="462" d="M145 319l164 1156q6 41 47 41h164q41 0 35 -41l-162 -1141q-5 -38 -5 -67q0 -14 1 -26q4 -36 14.5 -52.5t24.5 -16.5h14q41 0 35 -41l-12 -90q-6 -41 -45 -41h-35q-245 0 -245 241q-1 36 5 78z" />
<glyph unicode="m" horiz-adv-x="1581" d="M106 41l103 731q3 24 3 43q0 29 -7 47q-12 31 -35 31h-4q-41 0 -35 41l12 90q6 41 47 41h13q121 0 172 -42t55 -126h4q61 102 120.5 147.5t147.5 45.5q193 0 273 -168q51 78 130 123t155 45q158 0 248 -108q72 -85 72 -218q0 -36 -5 -76l-53 -375q-5 -30 -5 -54 q0 -15 2 -27q5 -32 15 -46t25 -14h4q41 0 34 -41l-12 -90q-6 -41 -45 -41h-12q-259 0 -260 228q0 33 6 71l45 319q8 58 8 107q0 62 -13 109q-24 84 -100 84q-172 0 -215 -306l-81 -571q-6 -41 -44 -41h-167q-41 0 -35 41l82 577q8 58 8 107q0 62 -13 109q-24 84 -100 84 q-174 0 -217 -320l-80 -557q-6 -41 -45 -41h-164q-43 0 -37 41z" />
<glyph unicode="n" horiz-adv-x="1097" d="M106 41l103 731q3 24 3 43q0 29 -7 47q-12 31 -35 31h-4q-41 0 -35 41l12 90q6 41 47 41h13q121 0 172 -42t55 -126h4q68 102 137.5 147.5t171.5 45.5q172 0 273 -108q81 -86 80 -224q0 -34 -4 -70l-54 -375q-5 -30 -5 -54q0 -15 2 -27q5 -32 15.5 -46t24.5 -14h4 q41 0 35 -41l-12 -90q-6 -41 -45 -41h-13q-259 0 -259 228q0 33 6 71l45 319q7 47 6 89q0 73 -21 127q-33 84 -131 84q-215 0 -258 -320l-80 -557q-6 -41 -45 -41h-164q-43 0 -37 41z" />
<glyph unicode="o" horiz-adv-x="1155" d="M147 314q-5 38 -4 78q0 66 13 138q16 123 53 218.5t101.5 176.5t171 124t247.5 43q429 0 429 -416q0 -67 -11 -144q-16 -123 -53 -217t-101.5 -174t-170 -123t-249 -43t-237.5 44t-135.5 119t-53.5 176zM401 532q-9 -67 -9 -122q0 -91 25 -152q40 -98 181 -98t210 99 t93 273q9 66 9 122q0 90 -24 153q-40 100 -181.5 100t-210 -100.5t-93.5 -274.5z" />
<glyph unicode="p" d="M43 -410l166 1182q4 28 4 50q0 71 -41 71h-4q-41 0 -35 41l12 90q6 41 48 41h12q121 0 172 -42t55 -126h4q147 195 389 195q195 0 296 -130q72 -93 72 -269q0 -71 -11 -156q-41 -299 -181.5 -430.5t-336.5 -131.5q-217 0 -295 150h-4l-76 -535q-6 -41 -45 -41h-164 q-43 0 -37 41zM422 537q-9 -63 -9 -116q0 -273 240 -274q115 0 182.5 82t100.5 308q14 94 14 163q0 92 -25 139q-44 81 -165 81q-141 0 -225 -92t-113 -291z" />
<glyph unicode="q" d="M156 537q41 295 179 425t333 130q242 0 342 -154h4l33 86q14 41 47 41h102q41 0 35 -41l-164 -1161q-5 -30 -5 -54q0 -15 2 -27q5 -32 15.5 -46.5t24.5 -14.5h14q43 0 37 -40l-14 -91q-6 -41 -45 -41h-23q-259 0 -259 229q0 33 5 70l39 277h-4q-119 -150 -336 -150 q-199 0 -301 131q-73 94 -73 273q0 73 12 158zM401 537q-12 -91 -12 -160q0 -99 27 -148q45 -82 162 -82q283 0 337 390q9 63 10 115q0 268 -237 268q-121 0 -187.5 -81t-99.5 -302z" />
<glyph unicode="r" horiz-adv-x="647" d="M106 41l103 731q3 24 3 43q0 29 -7 47q-12 31 -35 31h-4q-41 0 -35 41l12 90q6 41 47 41h13q123 0 176 -29.5t57 -89.5h4q63 72 131 103.5t172 31.5q20 0 26.5 -5t4.5 -25l-22 -154q-2 -18 -12.5 -26.5t-19.5 -8.5t-28.5 2t-27.5 2q-195 0 -224 -198l-88 -627 q-6 -41 -45 -41h-164q-43 0 -37 41z" />
<glyph unicode="s" horiz-adv-x="970" d="M104 76q-7 12 -7 23q0 15 12 30l53 66q16 18 53 4q145 -51 256 -52q207 0 223 138q1 8 1 15q0 36 -25 57q-31 26 -117 55l-170 53q-178 59 -178 240q0 27 4 57q20 147 133 238.5t295 91.5q121 0 216 -31t128 -70q7 -9 7 -19q0 -15 -15 -34l-53 -66q-10 -18 -54 -4 q-133 51 -229 52q-172 0 -193 -134q-1 -9 -1 -17q0 -63 69 -83l229 -70q123 -37 166 -110q30 -52 30 -128q0 -33 -5 -71q-23 -158 -158 -245t-315 -87q-127 0 -229.5 30t-125.5 71z" />
<glyph unicode="t" horiz-adv-x="645" d="M152 944l12 80q6 41 47 41h106l21 158q0 6 3 12t5 9t8 6t7 4t11.5 5.5t12.5 4.5l172 61q8 3 14 3q10 0 17 -8q10 -13 6 -36l-31 -219h129q41 0 35 -41l-12 -80q-6 -41 -47 -41h-129l-82 -590q-3 -20 -3 -38q0 -42 17 -67q25 -36 64 -36h14q41 0 35 -41l-13 -90 q-6 -41 -45 -41h-75q-245 0 -246 241q0 37 6 78l82 584h-107q-40 0 -34 41z" />
<glyph unicode="u" horiz-adv-x="1097" d="M154 377l92 647q6 41 45 41h168q39 0 33 -41l-82 -578q-8 -54 -8 -97q0 -201 161 -202q205 0 252 320l78 557q6 41 47 41h164q41 0 35 -41l-103 -731q-3 -24 -3 -43q0 -29 7 -47q12 -31 35 -31h4q41 0 35 -41l-12 -90q-6 -41 -45 -41h-13q-121 0 -173 42t-56 126h-4 q-68 -102 -137.5 -147.5t-171.5 -45.5q-168 0 -271 109q-83 88 -82 224q0 33 5 69z" />
<glyph unicode="v" horiz-adv-x="1032" d="M170 1028q-3 8 -3 15q0 22 34 22h188q41 0 47 -39l113 -780l334 780q14 39 59 39h188q27 0 28 -15q0 -9 -9 -22l-506 -991q-25 -37 -61 -37h-131q-41 0 -54 37z" />
<glyph unicode="w" horiz-adv-x="1605" d="M170 1028q-3 8 -3 15q0 22 34 22h188q41 0 47 -39l72 -780l313 780q14 39 58 39h147q43 0 45 -39l92 -780l293 780q14 39 60 39h188q27 0 27 -15q0 -9 -9 -22l-465 -991q-25 -37 -61 -37h-131q-41 0 -53 37l-111 663l-299 -663q-25 -37 -61 -37h-131q-41 0 -54 37z" />
<glyph unicode="x" horiz-adv-x="1032" d="M35 33l416 512l-261 487q-18 33 23 33h225q41 0 56 -35l116 -348l226 348q27 35 69 35h213q23 0 24 -11q0 -8 -14 -22l-395 -487l273 -512q18 -33 -21 -33h-225q-43 0 -58 35l-131 362l-243 -362q-27 -35 -68 -35h-213q-25 0 -25 11q0 8 13 22z" />
<glyph unicode="y" horiz-adv-x="1118" d="M115 -369q-6 6 -6 16q0 14 12 38l45 86q8 18 53 4q141 -49 277 -49q106 0 182 86t96 227l12 86h-4q-102 -150 -284 -150q-188 0 -286 131q-68 92 -68 268q0 74 12 163l69 487q6 41 47 41h164q41 0 35 -41l-70 -487q-13 -98 -13 -169q0 -92 23 -139q40 -82 146 -82 q231 0 287 390l69 487q6 41 48 41h163q41 0 35 -41l-135 -963q-33 -240 -187.5 -385t-367.5 -145q-102 0 -211.5 33.5t-142.5 66.5z" />
<glyph unicode="z" horiz-adv-x="872" d="M66 41l10 74q6 39 33 78l528 710h-397q-41 0 -35 41l12 80q6 41 47 41h639q41 0 35 -41l-10 -74q-6 -39 -33 -78l-526 -710h424q41 0 34 -41l-12 -80q-6 -41 -45 -41h-668q-42 0 -36 41z" />
<glyph unicode="{" horiz-adv-x="833" d="M199 694l14 103q6 41 47 41q78 0 134.5 77.5t70.5 188.5l41 295q18 117 113.5 190.5t207.5 73.5h97q41 0 34 -41l-16 -115q-6 -41 -47 -41h-29q-92 0 -123 -198l-30 -230q-31 -227 -209 -290v-5q160 -59 127 -290l-35 -242q-27 -199 66 -199h28q43 0 37 -41l-16 -114 q-6 -41 -47 -41h-97q-111 0 -187.5 71.5t-57.5 192.5l43 307q16 113 -18 189.5t-114 76.5q-40 0 -34 41z" />
<glyph unicode="|" horiz-adv-x="389" d="M63 -266l254 1802q6 41 48 41h102q41 0 35 -41l-254 -1802q-6 -41 -47 -41h-103q-41 0 -35 41z" />
<glyph unicode="}" horiz-adv-x="833" d="M82 -143l16 114q6 41 45 41h29q96 0 123 199l35 242q33 233 209 290v5q-158 61 -127 290l30 230q31 199 -65 198h-29q-41 0 -35 41l17 115q6 41 47 41h96q113 0 187.5 -73.5t56.5 -190.5l-41 -295q-14 -111 20.5 -188.5t110.5 -77.5q41 0 35 -41l-15 -103q-6 -41 -47 -41 q-80 0 -134 -75.5t-71 -190.5l-43 -307q-18 -121 -113 -192.5t-206 -71.5h-96q-41 0 -35 41z" />
<glyph unicode="~" horiz-adv-x="780" d="M195 666q16 90 67 146t141 56q47 0 129 -39q70 -33 78 -32q20 0 43 33.5t54 33.5h61q12 0 20.5 -10t6.5 -23q-14 -90 -65.5 -146t-141.5 -56q-31 0 -68 16q-135 55 -139 55q-20 0 -47 -33.5t-49 -33.5h-62q-14 0 -22 10.5t-6 22.5z" />
<glyph unicode="&#xa1;" horiz-adv-x="462" d="M35 -471l174 942q8 41 47 41h94q37 0 35 -41l-92 -942q-2 -41 -47 -41h-176q-43 0 -35 41zM209 758l22 164q6 41 48 41h176q41 0 34 -41l-22 -164q-6 -41 -47 -41h-176q-41 0 -35 41z" />
<glyph unicode="&#xa2;" horiz-adv-x="980" d="M156 535q72 504 485 550l35 246q6 41 47 41h102q41 0 35 -41l-35 -250q129 -25 199 -90q20 -20 -6 -53l-53 -66q-14 -16 -54 -4q-6 2 -32.5 13.5t-46 18.5t-52 13.5t-63.5 6.5q-260 0 -316 -388q-53 -385 205 -385q61 0 211 52q43 14 53 -4l33 -66q16 -29 -8 -53 q-72 -68 -223 -90l-37 -252q-6 -41 -47 -41h-103q-41 0 -34 41l34 246q-401 37 -329 555z" />
<glyph unicode="&#xa5;" horiz-adv-x="1286" d="M229 1440q-14 35 27 35h219q41 0 55 -35l236 -664l444 662q23 37 66 37h168q39 0 16 -37l-512 -738h168q41 0 35 -41l-12 -90q-6 -41 -47 -41h-256l-21 -143h256q41 0 35 -41l-12 -90q-6 -41 -47 -41h-256l-25 -172q-6 -41 -45 -41h-176q-43 0 -37 41l24 172h-235 q-41 0 -35 41l12 90q6 41 48 41h235l21 143h-236q-41 0 -35 41l12 90q6 41 48 41h149z" />
<glyph unicode="&#xa8;" horiz-adv-x="819" d="M283 1290l20 144q6 41 47 41h144q41 0 34 -41l-20 -144q-6 -41 -47 -41h-144q-40 0 -34 41zM672 1290l20 144q6 41 47 41h144q41 0 35 -41l-21 -144q-6 -41 -47 -41h-143q-41 0 -35 41z" />
<glyph unicode="&#xa9;" horiz-adv-x="1433" d="M182 573q35 254 240 434.5t461 180.5q254 0 408.5 -179.5t119.5 -435.5q-35 -254 -239.5 -434t-460.5 -180q-254 0 -409 179t-120 435zM264 573.5q-31 -221.5 102.5 -377t354.5 -155.5t399 155.5t209 377t-103 377t-355.5 155.5t-398.5 -155.5t-208 -377zM479 586 q25 184 138.5 282.5t275.5 98.5q61 0 119.5 -17.5t77.5 -34.5q10 -8 -3 -26l-20 -43q-8 -6 -29 -2q-92 25 -159 24q-100 0 -172 -68.5t-93 -213.5q-23 -147 30.5 -216t154.5 -69q63 0 168 25q18 8 26 -2l11 -37q4 -23 -7 -33q-23 -16 -86 -32.5t-125 -16.5q-160 0 -247 98.5 t-60 282.5z" />
<glyph unicode="&#xaa;" d="M156 537q41 295 179 425t333 130q213 0 301 -154h4l33 86q12 41 47 41h143q41 0 35 -41l-105 -731q-3 -24 -3 -43q0 -29 7 -47q12 -31 35 -31h4q41 0 35 -41l-12 -90q-6 -41 -45 -41h-12q-121 0 -173.5 42t-56.5 126h-4q-147 -195 -389 -195q-195 0 -296 131 q-72 93 -72 273q0 73 12 160zM401 537q-13 -93 -12 -163q0 -99 26 -147q44 -82 163 -82q283 0 337 392q9 63 10 115q0 268 -237 268q-121 0 -187.5 -81t-99.5 -302z" />
<glyph unicode="&#xab;" horiz-adv-x="1097" d="M182 715l6 57q4 27 45 57l615 433q20 8 28.5 1.5t4.5 -26.5l-15 -111q-4 -27 -45 -57l-463 -326l371 -325q33 -29 29 -58l-15 -110q-6 -41 -41 -25l-491 432q-33 29 -29 58zM592 715l6 57q4 27 45 57l500 351q20 8 28.5 1t6.5 -26l-17 -111q-4 -29 -45 -57l-348 -244 l281 -243q33 -29 28 -58l-16 -110q-4 -43 -39 -25l-401 350q-33 29 -29 58z" />
<glyph unicode="&#xad;" horiz-adv-x="757" d="M199 694l14 103q6 41 47 41h471q41 0 35 -41l-14 -103q-6 -41 -47 -41h-472q-40 0 -34 41z" />
<glyph unicode="&#xae;" horiz-adv-x="1433" d="M233 942q35 254 240 434t461 180q254 0 408.5 -179t119.5 -435q-35 -254 -239.5 -434t-460.5 -180q-254 0 -409 179t-120 435zM315.5 942q-30.5 -221 103.5 -376.5t355 -155.5t398.5 155.5t208 376.5t-102.5 377t-354.5 156t-399.5 -156t-208.5 -377zM590 608l98 697 q2 20 23 20h194q115 0 179.5 -74.5t48.5 -183.5q-10 -76 -58.5 -137.5t-120.5 -91.5l125 -234q8 -16 -10 -16h-113q-20 0 -28 16l-101 207h-79l-29 -203q-2 -20 -23 -20h-88q-20 0 -18 20zM760 903h65q154 0 179 164q20 166 -132 166h-65z" />
<glyph unicode="&#xaf;" horiz-adv-x="921" d="M289 1331l8 62q6 41 47 41h635q41 0 35 -41l-8 -62q-6 -41 -48 -41h-634q-41 0 -35 41z" />
<glyph unicode="&#xb2;" horiz-adv-x="1040" d="M100 41l9 57q8 49 32 78l527 664q147 164 163 282q10 78 -30.5 130.5t-134.5 52.5q-102 0 -312 -50q-51 -12 -53 5l-20 86q-10 39 8 53q43 31 178 65.5t254 34.5q182 0 288.5 -95t88.5 -280q-18 -176 -154 -319l-582 -621h580q41 0 35 -41l-14 -102q-6 -41 -45 -41h-781 q-43 0 -37 41z" />
<glyph unicode="&#xb3;" horiz-adv-x="1089" d="M104 76q-16 16 5 53l45 86q8 18 55 4q176 -49 336 -49q88 0 163.5 74.5t94.5 206.5q20 135 -38 217t-171 80h-51q-41 0 -35 40l6 43q6 43 33 76l268 383h-477q-41 0 -35 41l14 103q6 41 48 41h739q41 0 35 -41l-9 -58q-8 -49 -30 -78l-338 -389q166 -27 251 -145.5 t58 -298.5q-29 -209 -190.5 -349.5t-360.5 -140.5q-121 0 -251 34t-165 67z" />
<glyph unicode="&#xb4;" horiz-adv-x="612" d="M289 1280l151 201q29 35 70 35h186q41 0 6 -29l-258 -213q-35 -29 -75 -29h-64q-39 0 -16 35z" />
<glyph unicode="&#xb8;" horiz-adv-x="565" d="M47 -401l6 36q8 41 49 39v-2h43q131 0 142 78q4 33 -22.5 50.5t-100.5 17.5l72 182h112l-45 -111q66 -8 98.5 -50t22.5 -103q-10 -82 -84 -136.5t-180 -54.5q-86 0 -82 9q-39 2 -31 45z" />
<glyph unicode="&#xb9;" horiz-adv-x="671" d="M172 1081l16 115q6 43 45 59l508 232q20 10 27.5 4t5.5 -27l-201 -1423q-6 -41 -45 -41h-174q-43 0 -37 41l160 1133l-272 -117q-20 -8 -28.5 -3.5t-4.5 27.5z" />
<glyph unicode="&#xba;" horiz-adv-x="1155" d="M147 314q-5 38 -4 78q0 66 13 138q16 123 53 218.5t101.5 176.5t171 124t247.5 43q429 0 429 -416q0 -67 -11 -144q-16 -123 -53 -217t-101.5 -174t-170 -123t-249 -43t-237.5 44t-135.5 119t-53.5 176zM401 532q-9 -67 -9 -122q0 -91 25 -152q40 -98 181 -98t210 99 t93 273q9 66 9 122q0 90 -24 153q-40 100 -181.5 100t-210 -100.5t-93.5 -274.5z" />
<glyph unicode="&#xbb;" horiz-adv-x="1097" d="M127 332l16 110q4 27 45 58l351 243l-283 244q-33 33 -29 57l17 111q4 43 39 25l401 -351q33 -29 29 -57l-6 -57q-4 -27 -45 -58l-500 -350q-20 -8 -28.5 -1.5t-6.5 26.5zM424 250l14 110q4 27 45 58l465 325l-373 326q-33 29 -28 57l14 111q6 41 41 25l492 -433 q33 -29 28 -57l-6 -57q-4 -27 -45 -58l-614 -432q-20 -8 -28.5 -1.5t-4.5 26.5z" />
<glyph unicode="&#xbf;" horiz-adv-x="1040" d="M66 -137q18 178 153 319q2 2 43 36t77 66.5t71.5 85t42.5 97.5l4 29q2 41 45 41h176q39 0 37 -41l-4 -29q-12 -84 -58.5 -146.5t-156.5 -173.5q-18 -16 -48 -52t-69 -104.5t-47 -125.5q-10 -78 30.5 -130t139.5 -52q86 0 307 49q51 10 53 -4l21 -86q10 -39 -11 -54 q-41 -31 -177 -65.5t-255 -34.5q-178 0 -284 91t-90 284zM496 782l22 164q6 41 47 41h176q41 0 35 -41l-22 -164q-6 -41 -47 -41h-177q-40 0 -34 41z" />
<glyph unicode="&#xc0;" horiz-adv-x="1376" d="M31 37l755 1401q20 37 64 37h90q43 0 51 -37l363 -1401q12 -37 -29 -37h-195q-43 0 -51 39l-82 323h-581l-172 -323q-20 -39 -60 -39h-133q-45 0 -20 37zM508 535h446l-106 530l-21 154l-59 -154zM639 1896q-29 29 14 29h187q41 0 57 -35l94 -200q16 -35 -24 -35h-64 q-39 0 -67 28z" />
<glyph unicode="&#xc1;" horiz-adv-x="1376" d="M31 37l755 1401q20 37 64 37h90q43 0 51 -37l363 -1401q12 -37 -29 -37h-195q-43 0 -51 39l-82 323h-581l-172 -323q-20 -39 -60 -39h-133q-45 0 -20 37zM508 535h446l-106 530l-21 154l-59 -154zM885 1690l151 200q29 35 70 35h186q41 0 6 -29l-258 -213 q-35 -29 -75 -28h-64q-39 0 -16 35z" />
<glyph unicode="&#xc2;" horiz-adv-x="1376" d="M31 37l755 1401q20 37 64 37h90q43 0 51 -37l363 -1401q12 -37 -29 -37h-195q-43 0 -51 39l-82 323h-581l-172 -323q-20 -39 -60 -39h-133q-45 0 -20 37zM508 535h446l-106 530l-21 154l-59 -154zM641 1688l176 204q31 33 72 33h139q41 0 59 -33l119 -204q20 -33 -20 -33 h-70q-39 0 -65 28l-109 127l-145 -127q-31 -29 -74 -28h-70q-39 0 -12 33z" />
<glyph unicode="&#xc3;" horiz-adv-x="1376" d="M31 37l755 1401q20 37 64 37h90q43 0 51 -37l363 -1401q12 -37 -29 -37h-195q-43 0 -51 39l-82 323h-581l-172 -323q-20 -39 -60 -39h-133q-45 0 -20 37zM508 535h446l-106 530l-21 154l-59 -154zM635 1690q16 90 67.5 146t141.5 56q45 0 131 -39q70 -33 76 -32 q20 0 42.5 33.5t53.5 33.5h61q12 0 20.5 -10t6.5 -23q-35 -203 -207 -202q-31 0 -67 16q-135 55 -140 55q-20 0 -46.5 -33.5t-49.5 -33.5h-61q-14 0 -22.5 10.5t-6.5 22.5z" />
<glyph unicode="&#xc4;" horiz-adv-x="1376" d="M31 37l755 1401q20 37 64 37h90q43 0 51 -37l363 -1401q12 -37 -29 -37h-195q-43 0 -51 39l-82 323h-581l-172 -323q-20 -39 -60 -39h-133q-45 0 -20 37zM508 535h446l-106 530l-21 154l-59 -154zM618 1700l21 143q6 41 47 41h143q41 0 35 -41l-20 -143q-6 -41 -47 -41 h-144q-41 0 -35 41zM1008 1700l20 143q6 41 47 41h144q41 0 34 -41l-20 -143q-6 -41 -47 -41h-144q-40 0 -34 41z" />
<glyph unicode="&#xc5;" horiz-adv-x="1376" d="M31 37l755 1401q20 37 64 37h90q43 0 51 -37l363 -1401q12 -37 -29 -37h-195q-43 0 -51 39l-82 323h-581l-172 -323q-20 -39 -60 -39h-133q-45 0 -20 37zM508 535h446l-106 530l-21 154l-59 -154zM745 1778q12 80 76 135t142 55q82 0 129 -54t34 -136 q-10 -78 -73.5 -134.5t-143.5 -56.5q-76 0 -125 56.5t-39 134.5zM831 1778q-4 -41 23 -73t68 -32q43 0 77.5 30t41 75t-17.5 74.5t-71 29.5q-45 0 -80 -31.5t-41 -72.5z" />
<glyph unicode="&#xc6;" horiz-adv-x="1468" d="M31 37l755 1401q20 37 64 37h702q41 0 35 -41l-14 -103q-6 -41 -47 -41h-404l-63 -452h301q41 0 35 -41l-15 -103q-6 -41 -47 -41h-301l-65 -469h403q41 0 35 -41l-14 -102q-6 -41 -45 -41h-621q-43 0 -37 41l45 321h-317l-172 -323q-20 -39 -60 -39h-133q-43 0 -20 37z M508 535h250l96 684h-27l-59 -154z" />
<glyph unicode="&#xc7;" horiz-adv-x="1308" d="M184 737q51 371 279.5 566.5t550.5 195.5q121 0 237.5 -33.5t157.5 -66.5q16 -14 -4 -53l-45 -86q-14 -16 -53 -5q-184 49 -320 50q-203 0 -347 -137.5t-185 -430.5t65.5 -430t306.5 -137q131 0 334 49q41 14 51 -4l23 -76q10 -45 -10 -63q-49 -31 -161 -61.5t-226 -37.5 l-35 -88q66 -8 98.5 -50t22.5 -103q-10 -82 -84 -136.5t-181 -54.5q-86 0 -81 9q-39 2 -31 45l6 36q8 41 49 39v-2h43q131 0 141 78q2 14 -1 23.5t-17 14.5t-26.5 7t-43.5 4q-43 4 -18 58l45 123q-287 20 -438.5 214.5t-102.5 542.5z" />
<glyph unicode="&#xc8;" horiz-adv-x="989" d="M106 41l197 1393q6 41 47 41h723q41 0 35 -41l-14 -103q-6 -41 -47 -41h-506l-64 -452h404q41 0 34 -41l-14 -103q-6 -41 -47 -41h-403l-66 -469h506q41 0 35 -41l-15 -102q-6 -41 -45 -41h-723q-43 0 -37 41zM508 1896q-29 29 14 29h187q41 0 57 -35l94 -200 q16 -35 -24 -35h-64q-39 0 -67 28z" />
<glyph unicode="&#xc9;" horiz-adv-x="989" d="M106 41l197 1393q6 41 47 41h723q41 0 35 -41l-14 -103q-6 -41 -47 -41h-506l-64 -452h404q41 0 34 -41l-14 -103q-6 -41 -47 -41h-403l-66 -469h506q41 0 35 -41l-15 -102q-6 -41 -45 -41h-723q-43 0 -37 41zM614 1690l152 200q29 35 70 35h186q41 0 6 -29l-258 -213 q-35 -29 -76 -28h-63q-40 0 -17 35z" />
<glyph unicode="&#xca;" horiz-adv-x="989" d="M106 41l197 1393q6 41 47 41h723q41 0 35 -41l-14 -103q-6 -41 -47 -41h-506l-64 -452h404q41 0 34 -41l-14 -103q-6 -41 -47 -41h-403l-66 -469h506q41 0 35 -41l-15 -102q-6 -41 -45 -41h-723q-43 0 -37 41zM446 1688l177 204q31 33 71 33h140q41 0 59 -33l119 -204 q20 -33 -21 -33h-69q-39 0 -66 28l-108 127l-146 -127q-31 -29 -74 -28h-69q-40 0 -13 33z" />
<glyph unicode="&#xcb;" horiz-adv-x="989" d="M106 41l197 1393q6 41 47 41h723q41 0 35 -41l-14 -103q-6 -41 -47 -41h-506l-64 -452h404q41 0 34 -41l-14 -103q-6 -41 -47 -41h-403l-66 -469h506q41 0 35 -41l-15 -102q-6 -41 -45 -41h-723q-43 0 -37 41zM424 1700l20 143q6 41 48 41h143q41 0 35 -41l-21 -143 q-6 -41 -47 -41h-143q-41 0 -35 41zM813 1700l21 143q6 41 47 41h143q41 0 35 -41l-21 -143q-6 -41 -47 -41h-143q-41 0 -35 41z" />
<glyph unicode="&#xcc;" horiz-adv-x="462" d="M106 41l197 1393q6 41 47 41h176q41 0 35 -41l-196 -1393q-6 -41 -46 -41h-176q-43 0 -37 41zM227 1896q-29 29 15 29h186q39 0 57 -35l95 -200q18 -35 -25 -35h-63q-39 0 -68 28z" />
<glyph unicode="&#xcd;" horiz-adv-x="462" d="M106 41l197 1393q6 41 47 41h176q41 0 35 -41l-196 -1393q-6 -41 -46 -41h-176q-43 0 -37 41zM350 1690l152 200q29 35 69 35h187q41 0 6 -29l-258 -213q-35 -29 -76 -28h-63q-40 0 -17 35z" />
<glyph unicode="&#xce;" horiz-adv-x="462" d="M106 41l197 1393q6 41 47 41h176q41 0 35 -41l-196 -1393q-6 -41 -46 -41h-176q-43 0 -37 41zM186 1688l176 204q31 33 72 33h139q41 0 60 -33l119 -204q20 -33 -21 -33h-69q-39 0 -66 28l-109 127l-145 -127q-31 -29 -74 -28h-69q-40 0 -13 33z" />
<glyph unicode="&#xcf;" horiz-adv-x="462" d="M106 41l197 1393q6 41 47 41h176q41 0 35 -41l-196 -1393q-6 -41 -46 -41h-176q-43 0 -37 41zM164 1700l20 143q6 41 47 41h144q41 0 35 -41l-21 -143q-6 -41 -47 -41h-143q-41 0 -35 41zM553 1700l20 143q6 41 48 41h143q41 0 35 -41l-21 -143q-6 -41 -47 -41h-143 q-41 0 -35 41z" />
<glyph unicode="&#xd0;" horiz-adv-x="1443" d="M178 694l15 103q6 41 47 41h102l84 596q6 41 47 41h471q256 0 410.5 -209t111.5 -523q-45 -315 -270 -527t-508 -216h-422q-43 0 -37 41l86 612h-102q-41 0 -35 41zM508 184h203q176 0 314 163t171 407q33 233 -68.5 384.5t-277.5 151.5h-186l-64 -452h315q41 0 35 -41 l-14 -103q-6 -41 -47 -41h-316z" />
<glyph unicode="&#xd1;" horiz-adv-x="1302" d="M106 41l197 1393q6 41 47 41h144q45 0 61 -33l485 -1000h4l39 418l80 574q6 41 47 41h156q41 0 35 -41l-197 -1393q-6 -41 -45 -41h-143q-47 0 -64 33l-485 999h-4l-37 -418l-82 -573q-6 -41 -45 -41h-156q-43 0 -37 41zM598 1690q16 90 67.5 146t141.5 56q45 0 131 -39 q70 -33 76 -32q20 0 42.5 33.5t53.5 33.5h61q12 0 20.5 -10t6.5 -23q-35 -203 -207 -202q-31 0 -67 16q-135 55 -140 55q-20 0 -46.5 -33.5t-49.5 -33.5h-61q-14 0 -22.5 10.5t-6.5 22.5z" />
<glyph unicode="&#xd2;" horiz-adv-x="1609" d="M184 737q51 371 279.5 566.5t550 195.5t494.5 -195.5t122 -566.5q-51 -369 -280.5 -565.5t-549 -196.5t-493.5 196.5t-123 565.5zM455 737q-41 -293 65.5 -430t307 -137t346 137t186.5 430t-64.5 430.5t-308.5 137.5t-347 -137.5t-185 -430.5zM807 1896q-29 29 14 29h187 q41 0 57 -35l94 -200q16 -35 -24 -35h-64q-39 0 -67 28z" />
<glyph unicode="&#xd3;" horiz-adv-x="1609" d="M184 737q51 371 279.5 566.5t550 195.5t494.5 -195.5t122 -566.5q-51 -369 -280.5 -565.5t-549 -196.5t-493.5 196.5t-123 565.5zM455 737q-41 -293 65.5 -430t307 -137t346 137t186.5 430t-64.5 430.5t-308.5 137.5t-347 -137.5t-185 -430.5zM940 1690l152 200 q29 35 69 35h187q41 0 6 -29l-258 -213q-35 -29 -76 -28h-64q-39 0 -16 35z" />
<glyph unicode="&#xd4;" horiz-adv-x="1609" d="M184 737q51 371 279.5 566.5t550 195.5t494.5 -195.5t122 -566.5q-51 -369 -280.5 -565.5t-549 -196.5t-493.5 196.5t-123 565.5zM455 737q-41 -293 65.5 -430t307 -137t346 137t186.5 430t-64.5 430.5t-308.5 137.5t-347 -137.5t-185 -430.5zM758 1688l176 204 q31 33 72 33h139q41 0 59 -33l119 -204q20 -33 -20 -33h-70q-39 0 -66 28l-108 127l-146 -127q-31 -29 -73 -28h-70q-39 0 -12 33z" />
<glyph unicode="&#xd5;" horiz-adv-x="1609" d="M184 737q51 371 279.5 566.5t550 195.5t494.5 -195.5t122 -566.5q-51 -369 -280.5 -565.5t-549 -196.5t-493.5 196.5t-123 565.5zM455 737q-41 -293 65.5 -430t307 -137t346 137t186.5 430t-64.5 430.5t-308.5 137.5t-347 -137.5t-185 -430.5zM752 1690q16 90 67 146 t142 56q45 0 131 -39q70 -33 75 -32q20 0 43 33.5t54 33.5h61q12 0 20.5 -10t6.5 -23q-14 -90 -65.5 -146t-141.5 -56q-31 0 -68 16q-135 55 -139 55q-20 0 -47 -33.5t-49 -33.5h-62q-14 0 -22 10.5t-6 22.5z" />
<glyph unicode="&#xd6;" horiz-adv-x="1609" d="M184 737q51 371 279.5 566.5t550 195.5t494.5 -195.5t122 -566.5q-51 -369 -280.5 -565.5t-549 -196.5t-493.5 196.5t-123 565.5zM455 737q-41 -293 65.5 -430t307 -137t346 137t186.5 430t-64.5 430.5t-308.5 137.5t-347 -137.5t-185 -430.5zM735 1700l21 143 q6 41 47 41h143q41 0 35 -41l-20 -143q-6 -41 -48 -41h-143q-41 0 -35 41zM1124 1700l21 143q6 41 47 41h143q41 0 35 -41l-20 -143q-6 -41 -47 -41h-144q-41 0 -35 41z" />
<glyph unicode="&#xd7;" horiz-adv-x="802" d="M170 514q-27 29 8 57l197 174l-148 175q-27 29 9 57l79 72q35 29 58 0l151 -172l197 172q35 29 57 0l64 -72q23 -29 -8 -57l-197 -175l147 -174q23 -29 -8 -57l-82 -72q-35 -29 -57 0l-150 172l-198 -172q-35 -29 -58 0z" />
<glyph unicode="&#xd8;" horiz-adv-x="1609" d="M184 737q51 371 279.5 566.5t550.5 195.5q252 0 409 -119l68 68q31 35 59 6l70 -65q29 -27 -4 -60l-72 -74q131 -199 86 -518q-51 -369 -280.5 -565.5t-548.5 -196.5q-252 0 -410 119l-67 -67q-31 -33 -60 -7l-69 66q-27 29 4 59l71 72q-131 198 -86 520zM455 737 q-27 -193 12 -321l790 794q-100 94 -270 95q-203 0 -347 -137.5t-185 -430.5zM557 262q98 -92 270 -92q201 0 346.5 137t186.5 430q27 190 -12 322z" />
<glyph unicode="&#xd9;" horiz-adv-x="1302" d="M174 524l129 910q6 41 47 41h176q41 0 35 -41l-121 -852q-25 -182 36 -302t196 -120q166 0 276.5 118.5t134.5 303.5l121 852q6 41 47 41h115q41 0 35 -41l-129 -910q-33 -240 -210 -394.5t-419 -154.5q-236 0 -369 156.5t-100 392.5zM729 1896q-29 29 14 29h187 q41 0 57 -35l94 -200q16 -35 -24 -35h-64q-39 0 -67 28z" />
<glyph unicode="&#xda;" horiz-adv-x="1302" d="M174 524l129 910q6 41 47 41h176q41 0 35 -41l-121 -852q-25 -182 36 -302t196 -120q166 0 276.5 118.5t134.5 303.5l121 852q6 41 47 41h115q41 0 35 -41l-129 -910q-33 -240 -210 -394.5t-419 -154.5q-236 0 -369 156.5t-100 392.5zM690 1690l152 200q29 35 69 35h187 q41 0 6 -29l-258 -213q-35 -29 -76 -28h-63q-40 0 -17 35z" />
<glyph unicode="&#xdb;" horiz-adv-x="1302" d="M174 524l129 910q6 41 47 41h176q41 0 35 -41l-121 -852q-25 -182 36 -302t196 -120q166 0 276.5 118.5t134.5 303.5l121 852q6 41 47 41h115q41 0 35 -41l-129 -910q-33 -240 -210 -394.5t-419 -154.5q-236 0 -369 156.5t-100 392.5zM604 1688l176 204q31 33 72 33h139 q41 0 60 -33l118 -204q20 -33 -20 -33h-70q-39 0 -65 28l-109 127l-145 -127q-31 -29 -74 -28h-70q-39 0 -12 33z" />
<glyph unicode="&#xdc;" horiz-adv-x="1302" d="M174 524l129 910q6 41 47 41h176q41 0 35 -41l-121 -852q-25 -182 36 -302t196 -120q166 0 276.5 118.5t134.5 303.5l121 852q6 41 47 41h115q41 0 35 -41l-129 -910q-33 -240 -210 -394.5t-419 -154.5q-236 0 -369 156.5t-100 392.5zM582 1700l20 143q6 41 47 41h144 q41 0 34 -41l-20 -143q-6 -41 -47 -41h-144q-40 0 -34 41zM971 1700l20 143q6 41 47 41h144q41 0 35 -41l-21 -143q-6 -41 -47 -41h-143q-41 0 -35 41z" />
<glyph unicode="&#xdd;" horiz-adv-x="1286" d="M229 1440q-14 35 27 35h219q41 0 55 -35l236 -664l444 662q23 37 66 37h168q39 0 16 -37l-624 -899l-70 -498q-6 -41 -45 -41h-176q-43 0 -37 41l70 498zM786 1690l152 200q29 35 70 35h186q41 0 6 -29l-258 -213q-35 -29 -76 -28h-63q-40 0 -17 35z" />
<glyph unicode="&#xde;" horiz-adv-x="1140" d="M106 41l197 1391q6 41 47 41h176q41 0 35 -41l-26 -185h172q229 0 356 -148.5t98 -365.5q-29 -213 -199.5 -360.5t-398.5 -147.5h-172l-26 -184q-6 -41 -46 -41h-176q-43 0 -37 41zM416 408h131q311 0 356 325q45 328 -262 332h-131z" />
<glyph unicode="&#xdf;" horiz-adv-x="1284" d="M152 934l12 90q6 41 47 41h119l2 20q31 215 169 333t351 118q215 0 320.5 -106.5t78.5 -303.5q-31 -215 -237 -307l-2 -4q143 -25 206.5 -131t41.5 -264q-25 -178 -176.5 -299t-350.5 -121h-125q-43 0 -37 41l13 90q6 41 47 41h57q281 0 313 246q18 123 -36 206t-201 83 h-55q-41 0 -35 41l12 90q6 41 49 41q94 0 168 66.5t90 176.5q31 242 -164 242q-100 0 -160.5 -75t-78.5 -208l-148 -1040q-6 -41 -45 -41h-176q-43 0 -37 41l121 852h-119q-40 0 -34 41z" />
<glyph unicode="&#xe0;" d="M156 537q41 295 179 425t333 130q213 0 301 -154h4l33 86q12 41 47 41h143q41 0 35 -41l-105 -731q-8 -59 4.5 -90t34.5 -31h4q41 0 35 -41l-12 -90q-6 -41 -45 -41h-12q-121 0 -173.5 42t-56.5 126h-4q-147 -195 -389 -195q-195 0 -296 131.5t-60 432.5zM401 537 q-31 -227 13.5 -309.5t163.5 -82.5q283 0 337 392q55 383 -227 383q-121 0 -187.5 -81t-99.5 -302zM541 1487q-29 29 14 29h186q41 0 58 -35l94 -201q16 -35 -25 -35h-63q-39 0 -68 29z" />
<glyph unicode="&#xe1;" d="M156 537q41 295 179 425t333 130q213 0 301 -154h4l33 86q12 41 47 41h143q41 0 35 -41l-105 -731q-8 -59 4.5 -90t34.5 -31h4q41 0 35 -41l-12 -90q-6 -41 -45 -41h-12q-121 0 -173.5 42t-56.5 126h-4q-147 -195 -389 -195q-195 0 -296 131.5t-60 432.5zM401 537 q-31 -227 13.5 -309.5t163.5 -82.5q283 0 337 392q55 383 -227 383q-121 0 -187.5 -81t-99.5 -302zM625 1280l151 201q29 35 70 35h186q41 0 6 -29l-258 -213q-35 -29 -75 -29h-64q-39 0 -16 35z" />
<glyph unicode="&#xe2;" d="M156 537q41 295 179 425t333 130q213 0 301 -154h4l33 86q12 41 47 41h143q41 0 35 -41l-105 -731q-8 -59 4.5 -90t34.5 -31h4q41 0 35 -41l-12 -90q-6 -41 -45 -41h-12q-121 0 -173.5 42t-56.5 126h-4q-147 -195 -389 -195q-195 0 -296 131.5t-60 432.5zM401 537 q-31 -227 13.5 -309.5t163.5 -82.5q283 0 337 392q55 383 -227 383q-121 0 -187.5 -81t-99.5 -302zM489 1278l177 205q31 33 71 33h140q41 0 59 -33l119 -205q20 -33 -21 -33h-69q-39 0 -66 29l-108 127l-146 -127q-31 -29 -74 -29h-69q-40 0 -13 33z" />
<glyph unicode="&#xe3;" d="M156 537q41 295 179 425t333 130q213 0 301 -154h4l33 86q12 41 47 41h143q41 0 35 -41l-105 -731q-8 -59 4.5 -90t34.5 -31h4q41 0 35 -41l-12 -90q-6 -41 -45 -41h-12q-121 0 -173.5 42t-56.5 126h-4q-147 -195 -389 -195q-195 0 -296 131.5t-60 432.5zM401 537 q-31 -227 13.5 -309.5t163.5 -82.5q283 0 337 392q55 383 -227 383q-121 0 -187.5 -81t-99.5 -302zM485 1280q16 90 67.5 146.5t141.5 56.5q45 0 131 -39q70 -33 76 -33q20 0 43 34t53 34h62q12 0 20 -10.5t6 -22.5q-14 -90 -65 -146.5t-141 -56.5q-31 0 -68 17 q-135 55 -139 55q-20 0 -47 -34t-50 -34h-61q-14 0 -22.5 10.5t-6.5 22.5z" />
<glyph unicode="&#xe4;" d="M156 537q41 295 179 425t333 130q213 0 301 -154h4l33 86q12 41 47 41h143q41 0 35 -41l-105 -731q-8 -59 4.5 -90t34.5 -31h4q41 0 35 -41l-12 -90q-6 -41 -45 -41h-12q-121 0 -173.5 42t-56.5 126h-4q-147 -195 -389 -195q-195 0 -296 131.5t-60 432.5zM401 537 q-31 -227 13.5 -309.5t163.5 -82.5q283 0 337 392q55 383 -227 383q-121 0 -187.5 -81t-99.5 -302zM467 1290l20 144q6 41 48 41h143q41 0 35 -41l-21 -144q-6 -41 -47 -41h-143q-41 0 -35 41zM856 1290l21 144q6 41 47 41h143q41 0 35 -41l-21 -144q-6 -41 -47 -41h-143 q-41 0 -35 41z" />
<glyph unicode="&#xe5;" d="M156 537q41 295 179 425t333 130q213 0 301 -154h4l33 86q12 41 47 41h143q41 0 35 -41l-105 -731q-8 -59 4.5 -90t34.5 -31h4q41 0 35 -41l-12 -90q-6 -41 -45 -41h-12q-121 0 -173.5 42t-56.5 126h-4q-147 -195 -389 -195q-195 0 -296 131.5t-60 432.5zM401 537 q-31 -227 13.5 -309.5t163.5 -82.5q283 0 337 392q55 383 -227 383q-121 0 -187.5 -81t-99.5 -302zM594 1368q12 80 75.5 135.5t141.5 55.5q82 0 129 -54.5t35 -136.5q-10 -78 -73.5 -134t-143.5 -56q-76 0 -125 56t-39 134zM680 1368q-4 -41 22.5 -72.5t67.5 -31.5 q43 0 78 29.5t41 74.5t-17.5 75t-70.5 30q-45 0 -80 -32t-41 -73z" />
<glyph unicode="&#xe6;" horiz-adv-x="1691" d="M129 346q47 334 475 334h211q0 39 -6 75t-23.5 75.5t-58.5 64.5t-100 25q-68 0 -240 -52q-41 -12 -53 4l-33 66q-16 29 10 53q39 37 145.5 69t221.5 32q213 0 309 -127q131 127 336 127q195 0 301.5 -113t75.5 -328q-16 -119 -70.5 -162t-181.5 -43h-420 q-14 -299 217 -299q78 0 248 52q41 12 53 -4l33 -66q16 -29 -8 -53q-37 -37 -145.5 -69t-231.5 -32q-246 0 -346 144q-139 -143 -385 -144q-166 0 -262.5 95.5t-71.5 275.5zM379 352q-12 -76 27.5 -140.5t138.5 -64.5q201 0 241 302l9 59h-215q-82 0 -137.5 -41t-63.5 -115z M1053 618h315q49 0 66.5 12.5t23.5 57.5q12 94 -28.5 163t-118.5 69q-192 -1 -258 -302z" />
<glyph unicode="&#xe7;" horiz-adv-x="980" d="M156 535q80 557 573 557q92 0 176 -33t119 -68q20 -20 -6 -53l-53 -66q-14 -16 -54 -4q-6 2 -32.5 13.5t-46 18.5t-52 13.5t-63.5 6.5q-260 0 -316 -388q-53 -385 205 -385q61 0 211 52q43 14 53 -4l33 -66q16 -29 -8 -53q-82 -82 -283 -99l-34 -88q66 -8 98.5 -50 t21.5 -103q-10 -82 -83.5 -136.5t-180.5 -54.5q-86 0 -82 9q-39 2 -30 45l6 36q8 41 49 39v-2h43q131 0 141 78q2 14 -1 23.5t-17.5 14.5t-26.5 7t-43 4q-39 2 -18 58l45 120q-418 30 -344 558z" />
<glyph unicode="&#xe8;" horiz-adv-x="1056" d="M154 522q37 256 168 413t366 157q195 0 301.5 -113t75.5 -328q-16 -119 -70.5 -162t-181.5 -43h-420q-14 -299 217 -299q78 0 248 52q41 12 53 -4l33 -66q16 -29 -8 -53q-37 -37 -145.5 -69t-231.5 -32q-479 0 -405 547zM418 618h315q49 0 66.5 12.5t23.5 57.5 q12 94 -28.5 163t-118.5 69q-192 -1 -258 -302zM475 1487q-29 29 14 29h187q41 0 57 -35l94 -201q16 -35 -24 -35h-64q-39 0 -67 29z" />
<glyph unicode="&#xe9;" horiz-adv-x="1056" d="M154 522q37 256 168 413t366 157q195 0 301.5 -113t75.5 -328q-16 -119 -70.5 -162t-181.5 -43h-420q-14 -299 217 -299q78 0 248 52q41 12 53 -4l33 -66q16 -29 -8 -53q-37 -37 -145.5 -69t-231.5 -32q-479 0 -405 547zM418 618h315q49 0 66.5 12.5t23.5 57.5 q12 94 -28.5 163t-118.5 69q-192 -1 -258 -302zM592 1280l151 201q29 35 70 35h186q41 0 7 -29l-258 -213q-35 -29 -76 -29h-64q-39 0 -16 35z" />
<glyph unicode="&#xea;" horiz-adv-x="1056" d="M154 522q37 256 168 413t366 157q195 0 301.5 -113t75.5 -328q-16 -119 -70.5 -162t-181.5 -43h-420q-14 -299 217 -299q78 0 248 52q41 12 53 -4l33 -66q16 -29 -8 -53q-37 -37 -145.5 -69t-231.5 -32q-479 0 -405 547zM418 618h315q49 0 66.5 12.5t23.5 57.5 q12 94 -28.5 163t-118.5 69q-192 -1 -258 -302zM424 1278l176 205q31 33 72 33h139q41 0 59 -33l119 -205q20 -33 -20 -33h-70q-39 0 -65 29l-109 127l-145 -127q-31 -29 -74 -29h-70q-39 0 -12 33z" />
<glyph unicode="&#xeb;" horiz-adv-x="1056" d="M154 522q37 256 168 413t366 157q195 0 301.5 -113t75.5 -328q-16 -119 -70.5 -162t-181.5 -43h-420q-14 -299 217 -299q78 0 248 52q41 12 53 -4l33 -66q16 -29 -8 -53q-37 -37 -145.5 -69t-231.5 -32q-479 0 -405 547zM401 1290l21 144q6 41 47 41h143q41 0 35 -41 l-20 -144q-6 -41 -47 -41h-144q-41 0 -35 41zM418 618h315q49 0 66.5 12.5t23.5 57.5q12 94 -28.5 163t-118.5 69q-192 -1 -258 -302zM791 1290l20 144q6 41 47 41h143q41 0 35 -41l-20 -144q-6 -41 -47 -41h-144q-40 0 -34 41z" />
<glyph unicode="&#xec;" horiz-adv-x="450" d="M106 41l140 983q6 41 47 41h164q41 0 35 -41l-140 -983q-6 -41 -45 -41h-164q-43 0 -37 41zM162 1487q-29 29 14 29h186q39 0 58 -35l94 -201q18 -35 -25 -35h-63q-39 0 -68 29z" />
<glyph unicode="&#xed;" horiz-adv-x="450" d="M106 41l140 983q6 41 47 41h164q41 0 35 -41l-140 -983q-6 -41 -45 -41h-164q-43 0 -37 41zM293 1280l151 201q29 35 70 35h186q41 0 7 -29l-258 -213q-35 -29 -76 -29h-64q-39 0 -16 35z" />
<glyph unicode="&#xee;" horiz-adv-x="450" d="M106 41l140 983q6 41 47 41h164q41 0 35 -41l-140 -983q-6 -41 -45 -41h-164q-43 0 -37 41zM121 1278l176 205q31 33 72 33h139q41 0 59 -33l119 -205q20 -33 -20 -33h-70q-39 0 -66 29l-108 127l-146 -127q-31 -29 -73 -29h-70q-39 0 -12 33z" />
<glyph unicode="&#xef;" horiz-adv-x="450" d="M98 1290l21 144q6 41 47 41h143q41 0 35 -41l-20 -144q-6 -41 -48 -41h-143q-41 0 -35 41zM106 41l140 983q6 41 47 41h164q41 0 35 -41l-140 -983q-6 -41 -45 -41h-164q-43 0 -37 41zM487 1290l21 144q6 41 47 41h143q41 0 35 -41l-20 -144q-6 -41 -47 -41h-144 q-41 0 -35 41z" />
<glyph unicode="&#xf0;" horiz-adv-x="1167" d="M150 492q33 231 163.5 374.5t372.5 143.5q121 0 193.5 -53.5t93.5 -190.5q37 297 -2 422l-111 -98q-31 -29 -57 0l-37 43q-23 29 8 57l123 108q-55 37 -141 37q-41 0 -35 41l14 103q6 41 47 41q156 0 262 -90l95 83q35 29 57 0l37 -43q27 -29 -8 -57l-99 -88 q117 -201 64 -575q-55 -381 -215 -578t-400 -197q-256 0 -356 143t-69 374zM397 498q-49 -338 221 -338q84 0 162 75.5t99 215.5q57 365 -187 364q-141 0 -208 -83.5t-87 -233.5z" />
<glyph unicode="&#xf1;" horiz-adv-x="1097" d="M106 41l103 731q8 59 -4 90t-35 31h-4q-41 0 -35 41l12 90q6 41 47 41h13q121 0 172 -42t55 -126h4q68 102 137.5 147.5t171.5 45.5q172 0 272.5 -108t76.5 -294l-54 -375q-8 -49 -3 -80.5t15.5 -46t24.5 -14.5h4q41 0 35 -41l-12 -90q-6 -41 -45 -41h-13 q-297 0 -253 299l45 319q18 131 -15 215.5t-131 84.5q-215 0 -258 -320l-80 -557q-6 -41 -45 -41h-164q-43 0 -37 41zM438 1280q16 90 67.5 146.5t141.5 56.5q45 0 131 -39q70 -33 76 -33q20 0 43 34t53 34h62q12 0 20 -10.5t6 -22.5q-35 -203 -207 -203q-31 0 -67 17 q-135 55 -139 55q-20 0 -47 -34t-50 -34h-61q-14 0 -22.5 10.5t-6.5 22.5z" />
<glyph unicode="&#xf2;" horiz-adv-x="1155" d="M147.5 314.5q-12.5 101.5 8.5 215.5q16 123 53 218.5t101.5 176.5t171 124t247.5 43q498 0 418 -560q-16 -123 -53 -217t-101.5 -174t-170 -123t-249 -43t-237.5 44t-135 119t-53.5 176.5zM401 532q-25 -176 15.5 -274t181.5 -98t210 99t93.5 273.5t-15.5 274.5 t-181.5 100t-210 -100.5t-93.5 -274.5zM528 1487q-29 29 15 29h186q41 0 57 -35l95 -201q16 -35 -25 -35h-63q-39 0 -68 29z" />
<glyph unicode="&#xf3;" horiz-adv-x="1155" d="M147.5 314.5q-12.5 101.5 8.5 215.5q16 123 53 218.5t101.5 176.5t171 124t247.5 43q498 0 418 -560q-16 -123 -53 -217t-101.5 -174t-170 -123t-249 -43t-237.5 44t-135 119t-53.5 176.5zM401 532q-25 -176 15.5 -274t181.5 -98t210 99t93.5 273.5t-15.5 274.5 t-181.5 100t-210 -100.5t-93.5 -274.5zM627 1280l151 201q29 35 70 35h186q41 0 6 -29l-258 -213q-35 -29 -75 -29h-64q-39 0 -16 35z" />
<glyph unicode="&#xf4;" horiz-adv-x="1155" d="M147.5 314.5q-12.5 101.5 8.5 215.5q16 123 53 218.5t101.5 176.5t171 124t247.5 43q498 0 418 -560q-16 -123 -53 -217t-101.5 -174t-170 -123t-249 -43t-237.5 44t-135 119t-53.5 176.5zM401 532q-25 -176 15.5 -274t181.5 -98t210 99t93.5 273.5t-15.5 274.5 t-181.5 100t-210 -100.5t-93.5 -274.5zM473 1278l176 205q31 33 72 33h139q41 0 60 -33l118 -205q20 -33 -20 -33h-70q-39 0 -65 29l-109 127l-145 -127q-31 -29 -74 -29h-70q-39 0 -12 33z" />
<glyph unicode="&#xf5;" horiz-adv-x="1155" d="M147.5 314.5q-12.5 101.5 8.5 215.5q16 123 53 218.5t101.5 176.5t171 124t247.5 43q498 0 418 -560q-16 -123 -53 -217t-101.5 -174t-170 -123t-249 -43t-237.5 44t-135 119t-53.5 176.5zM401 532q-25 -176 15.5 -274t181.5 -98t210 99t93.5 273.5t-15.5 274.5 t-181.5 100t-210 -100.5t-93.5 -274.5zM467 1280q16 90 67.5 146.5t141.5 56.5q45 0 131 -39q70 -33 76 -33q20 0 42.5 34t53.5 34h61q12 0 20.5 -10.5t6.5 -22.5q-35 -203 -207 -203q-31 0 -67 17q-135 55 -140 55q-20 0 -46.5 -34t-49.5 -34h-61q-14 0 -22.5 10.5 t-6.5 22.5z" />
<glyph unicode="&#xf6;" horiz-adv-x="1155" d="M147.5 314.5q-12.5 101.5 8.5 215.5q16 123 53 218.5t101.5 176.5t171 124t247.5 43q498 0 418 -560q-16 -123 -53 -217t-101.5 -174t-170 -123t-249 -43t-237.5 44t-135 119t-53.5 176.5zM401 532q-25 -176 15.5 -274t181.5 -98t210 99t93.5 273.5t-15.5 274.5 t-181.5 100t-210 -100.5t-93.5 -274.5zM451 1290l20 144q6 41 47 41h144q41 0 34 -41l-20 -144q-6 -41 -47 -41h-144q-40 0 -34 41zM840 1290l20 144q6 41 47 41h144q41 0 34 -41l-20 -144q-6 -41 -47 -41h-144q-40 0 -34 41z" />
<glyph unicode="&#xf8;" horiz-adv-x="1155" d="M82 33q-31 27 4 59l90 92q-51 131 -20 346q16 123 53 218.5t101.5 176.5t171 124t247.5 43q172 0 275 -66l69 70q31 33 60 6l69 -66q27 -29 -4 -59l-82 -82q61 -133 31 -363q-16 -123 -53 -217t-101.5 -174t-170 -123t-249.5 -43q-186 0 -288 74l-74 -76q-33 -33 -61 -6z M391 401l453 461q-49 45 -139 45q-141 0 -210 -100t-94 -275q-10 -78 -10 -131zM446 215q51 -55 152 -55q141 0 210 99t93 273q10 66 10 154z" />
<glyph unicode="&#xf9;" horiz-adv-x="1097" d="M154 377l92 647q6 41 45 41h168q39 0 33 -41l-82 -578q-43 -299 153 -299q205 0 252 320l78 557q6 41 47 41h164q41 0 35 -41l-103 -731q-8 -59 4.5 -90t34.5 -31h4q41 0 35 -41l-12 -90q-6 -41 -45 -41h-13q-121 0 -173 42t-56 126h-4q-68 -102 -137.5 -147.5 t-171.5 -45.5q-168 0 -270.5 109t-77.5 293zM485 1487q-29 29 15 29h186q39 0 57 -35l95 -201q18 -35 -25 -35h-63q-39 0 -68 29z" />
<glyph unicode="&#xfa;" horiz-adv-x="1097" d="M154 377l92 647q6 41 45 41h168q39 0 33 -41l-82 -578q-43 -299 153 -299q205 0 252 320l78 557q6 41 47 41h164q41 0 35 -41l-103 -731q-8 -59 4.5 -90t34.5 -31h4q41 0 35 -41l-12 -90q-6 -41 -45 -41h-13q-121 0 -173 42t-56 126h-4q-68 -102 -137.5 -147.5 t-171.5 -45.5q-168 0 -270.5 109t-77.5 293zM616 1280l152 201q29 35 70 35h186q41 0 6 -29l-258 -213q-35 -29 -76 -29h-63q-40 0 -17 35z" />
<glyph unicode="&#xfb;" horiz-adv-x="1097" d="M154 377l92 647q6 41 45 41h168q39 0 33 -41l-82 -578q-43 -299 153 -299q205 0 252 320l78 557q6 41 47 41h164q41 0 35 -41l-103 -731q-8 -59 4.5 -90t34.5 -31h4q41 0 35 -41l-12 -90q-6 -41 -45 -41h-13q-121 0 -173 42t-56 126h-4q-68 -102 -137.5 -147.5 t-171.5 -45.5q-168 0 -270.5 109t-77.5 293zM444 1278l177 205q31 33 71 33h139q41 0 60 -33l119 -205q20 -33 -21 -33h-69q-39 0 -66 29l-109 127l-145 -127q-31 -29 -74 -29h-69q-40 0 -13 33z" />
<glyph unicode="&#xfc;" horiz-adv-x="1097" d="M154 377l92 647q6 41 45 41h168q39 0 33 -41l-82 -578q-43 -299 153 -299q205 0 252 320l78 557q6 41 47 41h164q41 0 35 -41l-103 -731q-8 -59 4.5 -90t34.5 -31h4q41 0 35 -41l-12 -90q-6 -41 -45 -41h-13q-121 0 -173 42t-56 126h-4q-68 -102 -137.5 -147.5 t-171.5 -45.5q-168 0 -270.5 109t-77.5 293zM422 1290l20 144q6 41 47 41h144q41 0 35 -41l-21 -144q-6 -41 -47 -41h-143q-41 0 -35 41zM811 1290l20 144q6 41 48 41h143q41 0 35 -41l-21 -144q-6 -41 -47 -41h-143q-41 0 -35 41z" />
<glyph unicode="&#xfd;" horiz-adv-x="1118" d="M115 -369q-14 14 6 54l45 86q8 18 53 4q141 -49 277 -49q106 0 182 86t96 227l12 86h-4q-102 -150 -284 -150q-188 0 -285.5 131.5t-56.5 430.5l69 487q6 41 47 41h164q41 0 35 -41l-70 -487q-31 -225 9.5 -307.5t146.5 -82.5q231 0 287 390l69 487q6 41 48 41h163 q41 0 35 -41l-135 -963q-33 -240 -187.5 -385t-367.5 -145q-102 0 -211.5 33.5t-142.5 66.5zM518 1280l152 201q29 35 69 35h187q41 0 6 -29l-258 -213q-35 -29 -76 -29h-63q-40 0 -17 35z" />
<glyph unicode="&#xfe;" d="M43 -410l266 1885q6 41 47 41h164q41 0 35 -41l-76 -533h4q106 150 295 150q215 0 330 -130.5t74 -424.5q-41 -297 -193.5 -429.5t-365.5 -132.5q-186 0 -254 150h-4l-76 -535q-6 -41 -45 -41h-164q-43 0 -37 41zM422 537q-55 -389 190 -390q135 0 213 82t111 308 q31 221 -23.5 302t-191.5 81q-246 0 -299 -383z" />
<glyph unicode="&#xff;" horiz-adv-x="1118" d="M115 -369q-14 14 6 54l45 86q8 18 53 4q141 -49 277 -49q106 0 182 86t96 227l12 86h-4q-102 -150 -284 -150q-188 0 -285.5 131.5t-56.5 430.5l69 487q6 41 47 41h164q41 0 35 -41l-70 -487q-31 -225 9.5 -307.5t146.5 -82.5q231 0 287 390l69 487q6 41 48 41h163 q41 0 35 -41l-135 -963q-33 -240 -187.5 -385t-367.5 -145q-102 0 -211.5 33.5t-142.5 66.5zM410 1290l20 144q6 41 47 41h144q41 0 34 -41l-20 -144q-6 -41 -47 -41h-144q-40 0 -34 41zM799 1290l20 144q6 41 47 41h144q41 0 34 -41l-20 -144q-6 -41 -47 -41h-143 q-41 0 -35 41z" />
<glyph unicode="&#x152;" horiz-adv-x="1878" d="M184 737q51 371 279.5 566.5t550.5 195.5q119 0 213 -26q4 2 12 2h723q41 0 35 -41l-15 -103q-6 -41 -47 -41h-505l-64 -452h403q41 0 35 -41l-14 -103q-6 -41 -47 -41h-404l-65 -469h506q41 0 35 -41l-15 -102q-6 -41 -45 -41h-737q-119 -25 -217 -25 q-319 0 -493.5 196.5t-123.5 565.5zM455 737q-41 -293 65.5 -430t306.5 -137q106 0 193 35l149 1065q-78 35 -182 35q-203 0 -347 -137.5t-185 -430.5z" />
<glyph unicode="&#x153;" horiz-adv-x="1802" d="M147.5 314.5q-12.5 101.5 8.5 215.5q16 123 53 218.5t101.5 176.5t171 124t247.5 43q260 0 348 -185q131 184 357 185q195 0 301 -113t75 -328q-16 -119 -70 -162t-181 -43h-420q-14 -299 217 -299q78 0 248 52q41 12 53 -4l33 -66q16 -29 -9 -53q-37 -37 -145.5 -69 t-230.5 -32q-250 0 -334 179q-135 -178 -398 -179q-143 0 -237 44t-135 119t-53.5 176.5zM401 532q-25 -176 15.5 -274t181.5 -98t210 99t93.5 273.5t-15.5 274.5t-181.5 100t-210 -100.5t-93.5 -274.5zM1163 618h316q49 0 66.5 12.5t23.5 57.5q12 94 -29 163t-119 69 q-192 -1 -258 -302z" />
<glyph unicode="&#x178;" horiz-adv-x="1286" d="M229 1440q-14 35 27 35h219q41 0 55 -35l236 -664l444 662q23 37 66 37h168q39 0 16 -37l-624 -899l-70 -498q-6 -41 -45 -41h-176q-43 0 -37 41l70 498zM573 1700l21 143q6 41 47 41h143q41 0 35 -41l-20 -143q-6 -41 -47 -41h-144q-41 0 -35 41zM963 1700l20 143 q6 41 47 41h144q41 0 34 -41l-20 -143q-6 -41 -47 -41h-144q-40 0 -34 41z" />
<glyph unicode="&#x2c6;" horiz-adv-x="770" d="M291 1278l176 205q31 33 72 33h139q41 0 59 -33l119 -205q20 -33 -20 -33h-70q-39 0 -66 29l-108 127l-146 -127q-31 -29 -73 -29h-70q-39 0 -12 33z" />
<glyph unicode="&#x2dc;" horiz-adv-x="780" d="M281 1280q16 90 67 146.5t141 56.5q45 0 132 -39q70 -33 75 -33q20 0 43 34t54 34h61q12 0 20.5 -10.5t6.5 -22.5q-14 -90 -65.5 -146.5t-141.5 -56.5q-31 0 -68 17q-135 55 -139 55q-20 0 -47 -34t-49 -34h-62q-14 0 -22 10.5t-6 22.5z" />
<glyph unicode="&#x2000;" horiz-adv-x="983" />
<glyph unicode="&#x2001;" horiz-adv-x="1968" />
<glyph unicode="&#x2002;" horiz-adv-x="983" />
<glyph unicode="&#x2003;" horiz-adv-x="1968" />
<glyph unicode="&#x2004;" horiz-adv-x="655" />
<glyph unicode="&#x2005;" horiz-adv-x="491" />
<glyph unicode="&#x2006;" horiz-adv-x="327" />
<glyph unicode="&#x2007;" horiz-adv-x="327" />
<glyph unicode="&#x2008;" horiz-adv-x="245" />
<glyph unicode="&#x2009;" horiz-adv-x="393" />
<glyph unicode="&#x200a;" horiz-adv-x="108" />
<glyph unicode="&#x2010;" horiz-adv-x="757" d="M199 694l14 103q6 41 47 41h471q41 0 35 -41l-14 -103q-6 -41 -47 -41h-472q-40 0 -34 41z" />
<glyph unicode="&#x2011;" horiz-adv-x="757" d="M199 694l14 103q6 41 47 41h471q41 0 35 -41l-14 -103q-6 -41 -47 -41h-472q-40 0 -34 41z" />
<glyph unicode="&#x2012;" horiz-adv-x="757" d="M199 694l14 103q6 41 47 41h471q41 0 35 -41l-14 -103q-6 -41 -47 -41h-472q-40 0 -34 41z" />
<glyph unicode="&#x2013;" horiz-adv-x="1024" d="M199 653v185h833v-185h-833z" />
<glyph unicode="&#x2014;" horiz-adv-x="2048" d="M199 653v185h1857v-185h-1857z" />
<glyph unicode="&#x2018;" horiz-adv-x="612" d="M328 1487q-29 29 14 29h186q41 0 58 -35l94 -201q16 -35 -25 -35h-63q-39 0 -68 29z" />
<glyph unicode="&#x2019;" horiz-adv-x="385" d="M258 1106l27 328q2 41 47 41h135q43 0 35 -41l-68 -328q-8 -41 -45 -41h-94q-39 0 -37 41z" />
<glyph unicode="&#x201c;" horiz-adv-x="712" d="M258 1106l27 328q2 41 47 41h135q43 0 35 -41l-68 -328q-8 -41 -45 -41h-94q-39 0 -37 41zM586 1106l26 328q2 41 47 41h136q43 0 34 -41l-67 -328q-8 -41 -45 -41h-94q-39 0 -37 41z" />
<glyph unicode="&#x201d;" horiz-adv-x="712" d="M258 1106l27 328q2 41 47 41h135q43 0 35 -41l-68 -328q-8 -41 -45 -41h-94q-39 0 -37 41zM586 1106l26 328q2 41 47 41h136q43 0 34 -41l-67 -328q-8 -41 -45 -41h-94q-39 0 -37 41z" />
<glyph unicode="&#x2026;" horiz-adv-x="1474" d="M1089 41l29 205q6 41 47 41h205q41 0 35 -41l-29 -205q-6 -41 -45 -41h-205q-43 0 -37 41zM598 41l29 205q6 41 47 41h205q41 0 35 -41l-29 -205q-6 -41 -45 -41h-205q-43 0 -37 41zM106 41l29 205q6 41 47 41h205q41 0 35 -41l-29 -205q-6 -41 -45 -41h-205 q-43 0 -37 41z" />
<glyph unicode="&#x202f;" horiz-adv-x="393" />
<glyph unicode="&#x2039;" horiz-adv-x="1241" d="M203 715l6 57q6 39 45 57l1024 433q20 8 28.5 3t4.5 -28l-15 -111q-6 -41 -45 -57l-770 -326l678 -325q35 -16 29 -58l-14 -110q-6 -43 -41 -25l-902 432q-34 17 -28 58z" />
<glyph unicode="&#x203a;" horiz-adv-x="1241" d="M137 250l15 110q6 41 45 58l772 325l-680 326q-35 16 -29 57l14 111q6 43 41 25l902 -433q35 -16 28 -57l-6 -57q-6 -39 -45 -58l-1024 -432q-20 -8 -28.5 -3t-4.5 28z" />
<glyph unicode="&#x205f;" horiz-adv-x="491" />
<glyph unicode="&#x20ac;" horiz-adv-x="1327" d="M113 522l14 90q2 41 45 41h143q2 27 11 84q4 35 16 101h-143q-41 0 -35 41l12 90q6 41 47 41h170q90 240 260 364.5t379 124.5q121 0 237.5 -33.5t157.5 -66.5q16 -14 -4 -53l-45 -86q-14 -16 -53 -5q-184 49 -319 50q-231 0 -344 -295h352q41 0 35 -41l-13 -90 q-6 -41 -47 -41h-377q-12 -66 -16 -101q-8 -68 -10 -84h377q39 0 36 -41l-14 -90q-6 -41 -45 -41h-356q23 -311 262 -311q131 0 334 49q41 14 51 -4l22 -76q10 -45 -10 -63q-51 -33 -177 -67t-247 -34q-211 0 -347 129t-155 377h-167q-43 0 -37 41z" />
<glyph unicode="&#x2122;" horiz-adv-x="2693" d="M1089 41l197 1393q6 41 47 41h187q41 0 55 -35l305 -1118l643 1116q25 37 68 37h166q41 0 34 -41l-196 -1393q-6 -41 -45 -41h-176q-43 0 -37 41l82 573l77 412h-4l-553 -989q-23 -37 -63 -37h-133q-43 0 -58 35l-256 991h-4l-36 -412l-82 -573q-6 -41 -45 -41h-136 q-43 0 -37 41zM207 1331l14 103q6 41 47 41h860q41 0 35 -41l-14 -103q-6 -41 -47 -41h-301l-176 -1249q-6 -41 -45 -41h-177q-43 0 -36 41l176 1249h-301q-41 0 -35 41z" />
<glyph unicode="&#xe000;" horiz-adv-x="1065" d="M0 1065h1065v-1065h-1065v1065z" />
<glyph unicode="&#xfb01;" horiz-adv-x="1054" d="M747 299l103 725q6 41 47 41h164q41 0 35 -41l-101 -711q-5 -30 -5 -54q0 -15 2 -27q5 -32 15.5 -46t24.5 -14h4q41 0 35 -41l-12 -90q-6 -41 -45 -41h-13q-259 0 -259 228q0 33 5 71zM889 1311l24 164q6 41 47 41h164q41 0 35 -41l-25 -164q-6 -41 -45 -41h-163 q-43 0 -37 41zM-51 -471l12 90q6 41 45 41h14q39 0 74 36t45 105l154 1102h-107q-41 0 -34 41l12 80q6 41 47 41h106l19 131q43 319 328 320h75q41 0 35 -41l-12 -91q-6 -41 -47 -41h-15q-39 0 -73.5 -35.5t-44.5 -105.5l-19 -137h129q41 0 35 -41l-12 -80q-6 -41 -47 -41 h-129l-154 -1096q-43 -319 -328 -319h-73q-41 0 -35 41z" />
<glyph unicode="&#xfb02;" horiz-adv-x="1067" d="M749 319l164 1156q6 41 47 41h164q41 0 35 -41l-162 -1141q-5 -38 -5 -67q0 -14 1 -26q4 -36 14.5 -52.5t24.5 -16.5h14q41 0 35 -41l-12 -90q-6 -41 -45 -41h-35q-245 0 -245 241q-1 36 5 78zM-51 -471l12 90q6 41 45 41h14q39 0 74 36t45 105l154 1102h-107 q-41 0 -34 41l12 80q6 41 47 41h106l19 131q43 319 328 320h75q41 0 35 -41l-12 -91q-6 -41 -47 -41h-15q-39 0 -73.5 -35.5t-44.5 -105.5l-19 -137h129q41 0 35 -41l-12 -80q-6 -41 -47 -41h-129l-154 -1096q-43 -319 -328 -319h-73q-41 0 -35 41z" />
<glyph unicode="&#xfb03;" horiz-adv-x="1658" d="M1351 299l103 725q6 41 47 41h164q41 0 35 -41l-101 -711q-5 -30 -5 -54q0 -15 2 -27q5 -32 15.5 -46t24.5 -14h4q41 0 35 -41l-12 -90q-6 -41 -45 -41h-13q-259 0 -259 228q0 33 5 71zM1493 1311l24 164q6 41 47 41h164q41 0 35 -41l-25 -164q-6 -41 -45 -41h-163 q-43 0 -37 41zM553 -471l12 90q6 41 45 41h14q39 0 74 36t45 105l154 1102h-107q-41 0 -34 41l12 80q6 41 47 41h106l19 131q43 319 328 320h75q41 0 35 -41l-12 -91q-6 -41 -47 -41h-15q-39 0 -73.5 -35.5t-44.5 -105.5l-19 -137h129q41 0 35 -41l-12 -80q-6 -41 -47 -41 h-129l-154 -1096q-43 -319 -328 -319h-73q-41 0 -35 41zM-51 -471l12 90q6 41 45 41h14q39 0 74 36t45 105l154 1102h-107q-41 0 -34 41l12 80q6 41 47 41h106l19 131q43 319 328 320h75q41 0 35 -41l-12 -91q-6 -41 -47 -41h-15q-39 0 -73.5 -35.5t-44.5 -105.5l-19 -137 h129q41 0 35 -41l-12 -80q-6 -41 -47 -41h-129l-154 -1096q-43 -319 -328 -319h-73q-41 0 -35 41z" />
<glyph unicode="&#xfb04;" horiz-adv-x="1671" d="M1353 319l164 1156q6 41 47 41h164q41 0 35 -41l-162 -1141q-5 -38 -5 -67q0 -14 1 -26q4 -36 14.5 -52.5t24.5 -16.5h14q41 0 35 -41l-12 -90q-6 -41 -45 -41h-35q-245 0 -245 241q-1 36 5 78zM553 -471l12 90q6 41 45 41h14q39 0 74 36t45 105l154 1102h-107 q-41 0 -34 41l12 80q6 41 47 41h106l19 131q43 319 328 320h75q41 0 35 -41l-12 -91q-6 -41 -47 -41h-15q-39 0 -73.5 -35.5t-44.5 -105.5l-19 -137h129q41 0 35 -41l-12 -80q-6 -41 -47 -41h-129l-154 -1096q-43 -319 -328 -319h-73q-41 0 -35 41zM-51 -471l12 90 q6 41 45 41h14q39 0 74 36t45 105l154 1102h-107q-41 0 -34 41l12 80q6 41 47 41h106l19 131q43 319 328 320h75q41 0 35 -41l-12 -91q-6 -41 -47 -41h-15q-39 0 -73.5 -35.5t-44.5 -105.5l-19 -137h129q41 0 35 -41l-12 -80q-6 -41 -47 -41h-129l-154 -1096 q-43 -319 -328 -319h-73q-41 0 -35 41z" />
</font>
</defs>
</svg>
